<?xml version="1.0" encoding="UTF-8"?>
<svg version="1.1" viewBox="0 0 1600 789" width="1280" height="632" xmlns="http://www.w3.org/2000/svg">
<path transform="translate(0)" d="m0 0h1600v789h-1600z" fill="#3D424A"/>
<path transform="translate(679,104)" d="m0 0h1l1 6 1 20v89l2 43 13 15 11 16 7 16 7 24 8 32 9 28 5 22 7 18 9 17 9 12 9 10 8 11 6 11 3 13v8l-8-2-16 6-21 14-14 12-10 9-25 25-15 20-10 19 1 4 8-6h6 3l6-9 14-18 12-12 7-8 7-7 11-9 14-11 13-8 2 1-16 11-11 10-11 9-25 25-12 16-7 9-4 9-1 10-1 2v10l1 5 7 1 1-5 8-12 3-2v3l2-1-3 10-4 8-2 12-7 8h-3l-1 3-6 4h-2l-2 5-7 7-6 5h-3v2l-16 7-9 5-22 4-5 1-16 1-8 2-11 3-16 2-12-1-8-3-15-3-26-4-4-1-7-3-12-5-9-4-16-8-21-8-12-7-12-11-2-1v-2l-5-2-6-4-5-7-10-7-12-11-9-6-9-11-9-17-9-19-8-21-6-10-2-17v-16l3-11 2-3 6-26 4-10 2-3 7-2 2-5 4-2 5-8h2v-7l2-4h5v-4l-5-15-3-19v-18l3-29 3-12-5 1h-27l-5-2 1-2 12 1h25l3-11 5-14 10-21 12-18 9-11 9-10 5-5 10-9 17-12 16-9 17-8 25-8 15-3 30-3 16 1 16 3 22 7 21 9 18 10 18 13 10 9 8 7 4 3-1-24v-83l1-20v-23z" fill="#E4F7FD"/>
<path transform="translate(414,216)" d="m0 0h8l2 6 2 4 1-2 7-2 5 1 1 3-17 13-11 9-9 11-8 9-10 15-8 14-9 20-6 18-9 1h-16l-12-1 4 2h32l-2 12-3 29v18l3 19 6 18-1 3-6-2-2 11-2 1-4 7-2 2h-3l-2 5-4 2h-3l-2 5-5 15-4 19-3 6-2 8v16l2 17 6 10 10 26 8 16 8 15 10 12 9 6 12 11 10 7 3 4v2l4 2 7 4v2l4 2 11 10 16 8 21 8 13 7 9 4 10 4 8 4 18 2 14 3 15 3 5 2 12 1 9-1 12-2 8-3 6-1 16-1 21-4 8-2 15-8 5-2h3v-2l5-3 10-9 3-5 8-5 1-2 5-3 4-5 2-12 7-16h-2v-3l-6 8-2 6h-2v5l-8-2-2-5v-10l1-2 1-10 4-9h1l3 13 4 1 5-2 1 1 6-2 14-14-2 5-8 8-4 7-2 9 2 5 5-8h3v4l5-1 2 2h2l-4 18-2 7h-2v13l3-2 2 1 2-6-4-1 1-8 4-8 5-7 1 2-3 6 2 1v2l3-1v-2l5-2-2 6v2l5-5-3 11-1 5-2 6h-3v4h-2l1 8-4 2-2 6 2 1v6h-2l1 3 2 2-2 5v6l-5 1 10 2-2 11-3 9-4 2v-3l-3 2-2 1-1 4-4 2-5 10-5 9-5 5 1 5-2 5h-455l-5-10-2-1v-2h-3v-2l-8-1-1-2 2-1-5-2-1 1-8 1-2 2-3-3v-2l-4-2-7-4-1-4-9-1h-18v3h-7v2l-6 3-4 3-7-4v-2h-2v-2l-2-1-2-6-1-6-6-5-11 1-3 1v-2l-7-1-2-7h-7l-3-5-1-11 1-1v-6l-4-1-2-5v-6l-2-4 1-6 3-4-1-11 3-5-2-4 4-2-3-1-3-4v-5l2-3-3-3 1-5 5-2 1-8 1-4-1-3-1-5-2-4-2-1v-6l-5-3v-4l-2-5 3-3-1-2h3l1-6-1-2 1-2h-2v-2l-2-1v-3l-9-1-1-2h-5v-1l-14-2-8-5-3-3v-2h-2v-3h-2l-1-8 2-12 6-9 7-7-5-3-5-2v-1h9l2 1 2-5 2-1v-9l1-3 6-1-1-7 2-4-2-9-4-1 1-5-1-2-7-2-2-1-2-7 4-2h8l6-2 5-3h2v-2h-2l-4-7-4-8-1-12v-5h2l2-6 7-9 5-4 1-2h2l1-3-3 1v-2h-9l-4 3h-8l4-2-15-11-7-3 2-3h3l-1-1v-5l4-2h8l2-1v2l6 2-9-11-3-3-2 6-3 1-1 3-8 2-8-1-1-4h6l3-2v-5l-4-5 4-5 6-1 1 6h2v2l2-1-2-5-6-10 1-5 4-1 7 12 4-3 8-1 1 2-3 3h5l-4 2-6 1 2-3-5-1 1 5 9 11 3 2 7 1 7 4 3-8 2-9 5-2 4 4-3 15-2 5v3l4-1-1-4h2l2 10 3 4v2l-4 2v4h6l3 2v2h6l4-4 1 2h3l1-5 1-2 6 1v2l5 2 1-10 3-8 3-6 4-1-2-3-5 1v-2h2v-2l-2-1 2-2 6-2 2-4 1-5h2v-2h-5l-1-2 6-3 10 2v-2l7-1 8-1 1-3v-3l4-1-1-5h-6l-1-4 8-3v-2l3-1 1-3-15-2-8-4-6-7-1-3v-13l5-13 8-10 8-5 10-1 5 3h10l8 6 7 8 4 11-1 9-1 4 3-3 3-1 4 3v2l2 1h-4l1 2 5-1 2-2 4-1h12l4 1 4-11 2-3-35 1v-5l2-1h25l-7-8-2-2 1-4 3-1 6 3v-3l9 3h2l7-3h2l5-8 6-5 5-2 2-2h7l1-3 5-5 4 1 7 1 5 2 2 2 16 1 2-4 10-5 13-2 7 2 5-2v-5l7-3h19l1-6z" fill="#6D7687"/>
<path transform="translate(863,169)" d="m0 0h11l17 2 14 4 11 5 13 13 8 15 5 17v18l-5 12-8 11-12 14-9 10-7 9 1 2 5-1 1 3h7l1 3 3-1 1 3 10 2-1 5-2-1v-2l-6 1-1 4 10-1 2-5h5v-2l-3 1-1-2 6-1 1 4-3 1-2 6v1l1 2h3l1-2v4h-2l3 7v6l4-1 2 5 2 1-1 2 3-1 6 4v2l3 1 2 10 4 2 1 4 7 2 6 4 2-4 6 1 1-3 5-1 2 3 8-1 6 3 3 3 3 7 2 1 1-11h3v2l4-2h6l4 4 1 12-1 8h-3l-1-18-1-1h-5l-2 2v17l-2 2 2 10 1 8-5 5h-3v18l1 1h7l3-2 1-26 3 1 1 6 1 25-2 10-4 5-5 2-9-1-5-1 1 4h-2v2l-2 2h2l1-1h8l6-3v2h-2l-1 14-1 2h-6l-5-1-10-1-2 6-1 1v12l1 2-1 2h3l-1 8-1 5h-2v5l3 2-1 4h-3v2h-2v2h2l-2 6 1 2h-2v6l-1 3h-2v2h-2l1 4-2 1 4 4 1 8 4-1 2 1 1-2 1 3 13-6 3-2v2l10-2 8-1h14l26 6 14 6 18 14 7 7 11 15 7 17 3 12 1 14h-1l-4-21-1-3-3-2-2-4v-3h-2l1-2-1-1v-3l-3-1-1-5h2l-6-8-4-1-5-5-5-7-5-5-11-7-13-5-25-5h-14l-11 1 1 6-3 5 3 4 11 3 4 2v5h-2v-2h-4v-2l-9-3-4-4-8-1-10 2 3 3 1 4-5 6-2 4-9 3-8 5-3 9 2-1 2 1-1 4-2 2 4 11-3 5-2-1 2-3h-2l-1 4 2 5 9 3-1 4-9-6-4-6v-5l-2 1h-5l-1-6 2 1 3-2 2-7 2-5-10 2-2 3-6-2-1 5-5 16-1 5v9l-1 1v9l2 16 6 17 7 13-1 2-6-10-6-14-3-10-1-6v-27l3-12 4-11-5-1-1 1 2 1-1 5h-5v-2h-3l2 5-8 1h-3v2l-6 4h-11l-4 1-3-1v2l-7 1-1-2-3 2h-8l-10-2v-14l2-7h-2l-3-12v-3l-8-1-10 1 2-4 1-4h2l-1-4-3-4-8-1-7-1v-4h3l2-5-2-1-4-5h-9l-4-2v-7-4-2l-2-1h-7l-5 1-1-3h2l-2-9-1-4-2-4-9-1v2l-13 5-10 4-15 10-13 11-11 9-9 9-7 8-8 8-12 16-8 11-2-1h-6l-9 6-1-5 11-21 10-12 7-9 30-30 11-9 10-8 19-12 14-5 6 2 2 1-3-17-4-10-7-11-9-10-11-14-9-16-9-22-6-26-9-28-10-39-7-21-7-13-10-13-11-13-1-23v-19l1-2 1-6h3l1-2h-3l-2-7h2v-3h-2l1-3 5 1 4 3 11 3 6-2h6l2-2v2l3 1v6l4 1 1-4-1-1 4-6 5-2-1-3 2-3v2h3v4h2v-2l4-1 10 2h5l1 7-4 1-3 5-1 4 3 1 1-1h5l1 3h-2v2l4 2-1 2h-2l3 3 1-2 4-1 4 1v-2l3 1-1 2h-2v2l-2 1 4 2 4 1 1 3 4 3-3 6h7v-2l3 1-1 2h2l1 3 1-16 4-16 7-13 8-10 8-8 11-7 9-4 11-2z" fill="#6D7687"/>
<path transform="translate(801,524)" d="m0 0 5 1 5 5 1 4 1 9h-2l2 2 4-1h7l4 4-1 9-1 2 10 1 4 1 5 5-1 4-1 2h-3l2 4h9l5 2 4 6-1 2h-2v6l-1 1 11-1 3 1 1 46-1 28h2l-1 5-10 16-5 7h-2l1 4 8 5 15 3 12 12 8 5 8 6 8 5 2 3 1 16 5 8-1 7-2 4-7 1-3-3-5-2-5 5-1 4-1 3 3 8h-195l1-8-1-3 5-4 5-9 4-7 5-5 4-7h3v3l3-2 3-9 3-11-11-1 1-2 4-1v-5l2-5-2-2 2-9-3-1 3-6 3-3v-7h2v-4l2-2 3-6 2-10v-2l-4 6-1-3 4-8-5 2v2l-5 4 1-5-1-3 1-3-6 9-2 6v5l3 1-2 6h-3l-2 2-1-5 1-9 3-7 4-16 1-2-3 1-2-2h-4l-1 2-1-4-1-1-5 8-2-4-1-4 3-9 6-8 7-8-14 14-6 1v-2l-5 2-1 2-2-2-2 3-2-12v-7l10-12 10-13 27-27 11-9 12-10 16-10 12-5h3v-2z" fill="#1F2429"/>
<path transform="translate(358,434)" d="m0 0h5l3 1 5 13 7 15 8 14 11 16 4 7-3 2-1 3v21l3 16 8 20 11 21 17 17 10 8 10 10 17 12 16 8 19 8 17 6 30 9 26 6 21 5h34l18-2 12-4 7-3 14-8 5-3-2-2-2-16 4-9h1v9l-1 2v10l1 5 7 1 1-5 8-12 3-2v3l2-1-3 10-4 8-2 12-7 8h-3l-1 3-6 4h-2l-2 5-7 7-6 5h-3v2l-16 7-9 5-22 4-5 1-16 1-8 2-11 3-16 2-12-1-8-3-15-3-26-4-4-1-7-3-12-5-9-4-16-8-21-8-12-7-12-11-2-1v-2l-5-2-6-4-5-7-10-7-12-11-9-6-9-11-9-17-9-19-8-21-6-10-2-17v-16l3-11 2-3 6-26 4-10 2-3 7-2 2-5 4-2 5-8h2v-7z" fill="#C3D6F1"/>
<path transform="translate(785,588)" d="m0 0 2 1-15 13-11 11-7 8-5 5-1 4-8 12h-2l-1 6 6-2 3 1v3l3 1v2l3 1 2 2-1 7h2l5-4 1 3 2 4 7 3-3 8h2v-2l28 1 8 4 5 3 3 2 1-4-2-1v-2l-6-2-3-3-15-6-1-4h-2v-2h-2l2-5 10-9 7-8 9-8 1 2 7 1 1 3v5h2v4l3 3v2l3 2v2h2v2l4 2 2 3-2 4 8 10v2h2l3 4-7 8-3 1-8-3 8 4-9 12-9 2-3 2-10 1-6 3h-2v2h-2l6 13 4 7 4 9 1 3 3-1 1 4-1-20 2 4 1 16h6v-2h4v2l2-1 2-15 2 2-1 10-1 4h7v2h-7v3l-3 1-3 6 4 3 7 3 9 10 9 9 2-1 1 4h-152l1-8-1-3 5-4 5-9 4-7 5-5 4-7h3v3l3-2 3-9 3-11-11-1 1-2 4-1v-5l2-5-2-2 2-9-3-1 3-6 3-3v-7h2v-4l2-2 3-6 2-10v-2l-4 6-1-3 4-8-5 2v2l-5 4 1-5-1-3 1-3-6 9-2 6v5l3 1-2 6h-3l-2 2-1-5 1-9 3-7 4-16 1-2-3 1-2-2h-4l-1 2-1-4-1-1-5 8-2-4-1-4 3-9 6-8 6-5-2 4-6 7v3 2l11-6h3l1-3h2l1-3h4v2l2 1-2 5h2l4-8 4-5 9-7 13-13z" fill="#3D424A"/>
<path transform="translate(358,434)" d="m0 0h5l3 1 5 13 5 11v2l-5 1-8 12h-2v2h-2l-3 9-4 19-1 18 1 16 3 10 3 6 2 7 6 13 5 12 8 10 5 8 3 6v2h2l5 7 4 3v2h2l9 11 17 11 8 7 2 1v2l20 10 19 5 18 7 16 8 13 4 23 6 26 4h33l16-2 14-2 23-7 14-7 7-4 7-5 5-5 11-8 3-1 2-3-1 9-7 8h-3l-1 3-6 4h-2l-2 5-7 7-6 5h-3v2l-16 7-9 5-22 4-5 1-16 1-8 2-11 3-16 2-12-1-8-3-15-3-26-4-4-1-7-3-12-5-9-4-16-8-21-8-12-7-12-11-2-1v-2l-5-2-6-4-5-7-10-7-12-11-9-6-9-11-9-17-9-19-8-21-6-10-2-17v-16l3-11 2-3 6-26 4-10 2-3 7-2 2-5 4-2 5-8h2v-7z" fill="#A3B3CD"/>
<path transform="translate(870,172)" d="m0 0h12l15 2 13 5 11 8 8 9 6 12 2 10v14l-3 10-6 9-6 7h-2l-2 4-5 5h-2l-2 4-7 7-7 11-3 6-3-1-1-6 1-3-3 1-4-1 2-5 3-2 3-7-6 1v-3h-4l-1-8 2-5 3-1v-5l-5-1-3 5-3 10-2 1-4-6-3 1-1 3-4-2-3-2-4 1-1 11-2-4-1-5-3-1-4-5h-6l-5 4-6-2-3-3-8-3-2-4-5 1-1 5h-2l-2-9v-10l3-14 4-10 8-12 9-10 11-8 8-4 12-3z" fill="#3E444C"/>
<path transform="translate(1328,439)" d="m0 0h19l10 3 7 5 4 8v7l-4 8 19-2 4 2 30-3h5l1 4-13 11-2 4v8l1 3 10 4h10l14-7 5-5v-8l-6-4-7-3 1-5 18-1 16-3 3 2 2 8v22l10-3h7l8 3 8 7 6 12v12l-5 8-8 6-9 3-10-1-1-1-1 5v24l-4 3-36-1-9-2-2-3 1-5 4-4 6-5 4-8-1-4-2-1h-18l-8 3-3 1v8l6 11-1 6-4 2-19 2h-7l-2-2v-6l3-3 15-1v-2l-3-9 2-9 5-6 8-4 10-2h15l10 4 4 5 1 7-3 10-2 4 18 1 1-35 1-7 2-2h6l2 3 3 10 3 3h9l6-3 4-5 1-2-1-9-6-9-4-3h-11l-8 4-4 3-5-1v-35l-15 2 3 7-1 7-7 8-8 5-7 3-11 1-10-3-8-7-1-2v-10l6-9 1-1h-11l-10 1-4 32v7l-4 2-8-9-8-1-6 4-4 8v11l4 6 1 1 7-1 5-4 3-4 5 1 3 12v25l-3 5-20 1-14 2-2 1 3 5v7l-3 5-7 6-14 4h-15l-7-2-5-4-2-4v-11l5-9-18 2-9 2-3-3-3-19v-15l2-2h5l3 3 1 26 19-1h15l2 2-1 4-8 7-3 7 1 6 6 3h14l10-3 6-4 1-4-10-7-3-2v-5l3-2 28-3h19l-1-25-8 5h-8l-5-3-4-5-2-5v-14l5-10 6-5 5-2h7l8 4v-8l1-7v-12l-31 1-2-2 1-5 8-5h2l2-4 1-4-3-6-5-3-4-1h-18l-11 3-8 6-1 2v6l4 4 2 1v5l-7 2-16 1-18-3-2-1 1 28-5 1-6-7-3-2-7 1-7 5-3 5-1 4v8l3 7 4 5 6 3h11l6-4 2-1-2 4-7 4-3 1h-8l-8-3-5-5-4-5-2-5v-12l3-8h2l2-5 10-6h10l5 4v-20l5-3h7l11 2 13 1-2-6v-7l3-6 5-5 6-4z" fill="#6E7788"/>
<path transform="translate(373,460)" d="m0 0 4 1 8 14v2l-6 1-1 11-3 8-2 12v20l5 23 5 13 11 21 6 9 7 10 9 11 14 11 11 9 8 6 16 8 8 5 13 5 11 3 18 10 10 3 25 4 19 5 12 2 13 1h14l25-3 18-4 15-4 12-6 6-5h2v-2l7-4 4-3h2l1-9 2-1 5-10 5-4v3l2-1-3 10-5 11-1 5-2-1-12 8-3 3h-2l-2 4-10 7-13 6-13 5-19 5-13 2-12 1h-33l-31-5-18-5-13-4-16-8-18-7-22-6-13-7-4-3v-2l-4-2-10-8-13-8-6-7v-2l-3-1v-2h-2l-7-8-2-4h-2l-7-13-11-15-8-19-3-5-2-8-4-9-1-5-1-21 2-19 4-17 3-5h2v-2h2l2-5 6-8z" fill="#B5C6E3"/>
<path transform="translate(852,697)" d="m0 0 11 7 15 3 12 12 8 5 8 6 8 5 2 3 1 16 5 8-1 7-2 4-7 1-3-3-5-2-5 5-1 4-1 3 3 8h-43l-2-3h-3l-5-7-5-4-6-7-10-5-2-3 4-7 3 1v-3h7v-2h-7l1-14-2 13-3 1v-2h-4v2h-6l-2-16v16l-2-1v-2h-2l-4-6-2-6-4-7-5-10v-3h2v-2l8-4 10-1 5-3h7l-1 7 6-2 12-7z" fill="#2D3238"/>
<path transform="translate(1366,275)" d="m0 0h5l1 4 25 3h18l16-1h54l26 1v3h-2v2l2 1-10 1h-112l-11-1 6 8 8 9 12 16 10 12 9-18 8-9 10-6 12-2 10 2 8 4 5 6 2 6v11l-6 10-5 4h-9l-5-4-1-4-5 4-5 5-4 2-5-1-4-4-1-6 4-9 7-7 8-4h6l3 2 2 5v14h6l5-4 2-4v-8l-3-6-6-4-3-1h-12l-9 4-3 3h-2l-8 16-1 4v8l4 8 8 5 12 2 8-1 6-4 7-7 11-14 8-10 14-19 9-13 2 4-1 7 1 2-8 12-9 12-11 13-11 14-8 8-8 4-4 1h-12l-13-4-8-6-7-9-9-12-13-17-10-13-9-10v85l-2 7 12-1 45 1h67l27 1v-24l4 3 2 5h3l1 17 7 1 1 4-1 2-12 2-6-2-26-1h-122l-4 6-3 2-3-2v-5l-3-1v-5l3-2 1-8 1-104z" fill="#6D7687"/>
<path transform="translate(785,403)" d="m0 0h11l6 4 3 3-1 5-5-1-3-3-8-1-4 4-2 6v11l3 8 1 3 10 1 4-4 5-11 5-1 3 3-2 6-6 10-5 4-3 1h-11l4 2 5 10 2 6 6 2 4 7h3l-1 3h-2l4 7v3l2 1-1 6 3 3v6l-1 2h2l2 18-1 4-6-2-7-4h-5v2l-13 5-10 4-15 10-13 11-11 9-9 9-7 8-8 8-12 16-8 11-2-1h-6l-9 6-1-5 11-21 10-12 7-9 30-30 11-9 10-8 19-12 14-5 6 2 2 1-3-17-4-10-7-11-9-10-11-14-9-16-9-22 1-6 7 1 5 5 1 3 4 2 6 5 5 5 2 4v-14l4-11z" fill="#A3B3CD"/>
<path transform="translate(401,499)" d="m0 0 5 5 6 9 3 20 4 13 6 14 7 10 9 10 7 7 8 7 12 10 10 8 15 9 15 8 14 7 16 5 33 10 12 3 18 5 15 3 22 1 17-2 15-4 13-6 3-2 2-11 2 3 1 9 3 3-14 7-8 5-18 6-18 2h-34l-28-7-22-5-34-10-29-12-16-8-14-10-10-9-11-10-8-7-12-12-12-23-7-18-3-16v-21l3-5z" fill="#D9EBF9"/>
<path transform="translate(34,243)" d="m0 0h13l14 4 11 6 10 9 7 10 2 5v14l-5 9-7 7-12 6-12 3h-11l-15-3-12-5-10-9-6-10-1-4v-10l4-13 7-9 7-4 12-5z" fill="#3D424A"/>
<path transform="translate(830,563)" d="m0 0h5l4 1v2l-8 4 5 3v2l-6 4-11 6-8 6 11-7 12-6 7-1-4 4-10 6-14 9-9 7h-2l1 2 10-7 14-9 7-5 9-4 11-1 1 2-4 3 3 1-3 9-11 4-11 8-5 2-2 4-6 5-1 2h-2l1 4-10 9-19 19-5 1-8 7-5 5h-3v-5l-3 1v-3l-6 8-3-2 1-7-4-3v-2l-4-1 1-3-3 1h-4l-3 1 2-7h2l2-5 6-9 2-4 9-9 7-8 10-10 13-10 4-1 10-7 5-3 3-4 7-3 6-4z" fill="#21262A"/>
<path transform="translate(1007,571)" d="m0 0 8 1 1 3 9 3 3 2v2h4v2h2v-5l-4-1 1-3 12-1 4 2h5l5-2 7 1v2l4-2 3 2-4 1h-2v2h4l2 5 1 7 6 3v1h-5l-4-5-1-9-7-1-1 1 3 4 3 1v2l-6-2-3-4-2 1 1 3-2 3 4 3v-2h2l3 10h2l1 8-4-3-2 3 1 3-4 1-7 3-5-1h-3l-5 3-7 3-4 2-11 4-2 5 5 1-1 4-2 1-1 2-3-2v2l3 2 5-1 12 3-1 2 5 2-2 3-6 1-4-2-6-1h-4l-5-2-1-4 1-3-6-1-3-1-3 3v1l6 2v3l-4 3 1 3 7 2 1 3h-2v-2l-2 1v2l-3 3h-2l-3-5-5-7v-2h-2l-5-6 1-4h-5l-5-5-2-4 2-4 2 1v3l2-4-2-6h-1l-1-6 3-2 1-3-5 1 1-4 3-7 12-7 5-1 2-5h2l2-6-1-4-3-1 4-2z" fill="#3E434B"/>
<path transform="translate(625,90)" d="m0 0h3l1 7-5 28-1 11-4 1-10-5-3 10-6 12-13 20-5 7-1 3 4 1-1 6 1 4-1 2 4-1h1l7 2v2l10 3 9-3 5-2 1 1 9 1 11 6h4l2-4h10l3 5 7 2 4 2h4v-27l1-34h1l1 81 1 25-4-2-7-7-11-9-12-9-14-9-17-9-20-8-21-6-6-2 2-4 2-5-6-5-4 1-5 4h-2l-3 2 2-4 6-7-5-3-1-5 4-6 11-9 8-6 4 2-1 14-3 16 12-20 8-13 8-19-12-2-1-4 12-13 7-8 13-10z" fill="#6C7586"/>
<path transform="translate(867,594)" d="m0 0h3l1 45-1 28h2l-1 5-10 16-5 7h-2v2l-17 11-8 4-3-1 1-6 8-11 1-1-10-6 2-1 10 4 5-5 9-8-2-2-3-10-3-5-2-1-1-6-7-12-1-5-2-4v-3h-2l-5-7 1-4 19-13 11-7 7-3z" fill="#1D2226"/>
<path transform="translate(826,548)" d="m0 0 2 1-2 10 10 1 4 1 5 5-1 4-1 2h-3l2 4h9l5 2 4 6-1 2h-2v6l-1 1 11-1 3 2-13 4-12 7-18 13h-2v5l4 4v2h2l6 15 6 11-1 4 3 1 4 8 2 7 2 2-6 5-3-2v-2h-2l-9-12 2-4-5-5v-2h-2l-4-4v-3l-3-3 1-3h-2l-1-7-8-3-12 11-7 8-7 6-2 4h2v2h2l1 4 6 1 10 5 8 5v2l3 1-1 4h-3l-9-6-5-2-22-1-6-1v2h-2l2-7-7-4-3-3v-5l3-2v3l3-1-1 6 5-3 9-9 5-2 4-2 24-24 2-1-1-2 1-2h2l2-4 6-5 3-3 14-10 8-3h3v-5l3-4-4-1 4-4-11 1-14 7-9 7-15 9-4 2 1-3 11-8 14-9 13-8-8 2-12 6-8 6-2-1 14-10 9-5 3-1v-2l-4-1-2-2 7-4h2v-2l-4 1v-2l-13 4-7 5-5 2-5 5-9 6-4 3h-5l6-7 9-6 8-5h3v-2l-5 1-15 10h-2v-3h2v-2h2l1-3 2-2-2-1 10-6v2l3-2h3v3l3 1 4-2 2-3-2-2 3-3h2v-2l-8 1 1-2 8-3z" fill="#2C3136"/>
<path transform="translate(787,512)" d="m0 0 4 1 1 7 2 3 3 2-19 10-16 10-14 12-11 9-9 9-7 8-8 8-12 16-8 11-2-1h-6l-9 6-1-5 11-21 10-12 7-9 30-30 11-9 10-8 19-12z" fill="#21262A"/>
<path transform="translate(863,169)" d="m0 0h11l17 2 14 4 11 5 13 13 8 15 5 17v18l-5 12-8 11-12 14-9 10-8 10-7 12-1 3v16h-1l-3-15v-10l3-11 6-11 7-9 7-8 8-7 7-8 6-8 3-8 1-4v-14l-3-12-5-10-9-10-13-8-14-4-10-1h-12l-19 3-11 4-10 6-10 9-9 13-5 10-3 10-1 7v10l3 12 7 14 9 13 7 14 1 5v10l-2-3-3-13-7-11-10-11-8-13-4-11-1-5v-16l4-16 7-13 8-10 8-8 11-7 9-4 11-2z" fill="#D5E7F6"/>
<path transform="translate(848,579)" d="m0 0h7v2l-4 3 3 1-3 9-11 4-11 8-5 2-2 4-6 5-1 2h-2l1 4-10 9-19 19-5 1-8 7-5 5h-3v-5l-3 1v-3l-6 8-3-2 2-5 8-10 2-3-5 3 2-5 22-22 4-5 11-9 6-3 14-9 10-7 6-4 9-4z" fill="#21262B"/>
<path transform="translate(817,546)" d="m0 0 8 1v4l-8 3h7v2l-4 3 3 2-6 5h-2l-1 2v-2l-3-1 1-3-6 2h-2l-6 4 2 1-5 5h-2v2h-2v3l18-12 4 1v2l-11 6-9 6-10 9-11 9-13 13-9 7-1 4-4 5h-2l1-5-4-2-5 5-10 5-4 1v-2l-2-1 3-5h2l2-4 3-5 2-4 31-31 11-9 6-5 7-4 17-11 10-5z" fill="#1E2327"/>
<path transform="translate(301,248)" d="m0 0h14l8 4 25-3 20-1h32l-1 3-62 4-10 2 6 11 1 4v13l-3 6-6 5-6 2-9-1-8-5-7-9-7-8-2-5v-8l3-6 7-6z" fill="#DEF1FA"/>
<path transform="translate(1159,454)" d="m0 0h2l7 8 12 12 8 7 11 7 2 2-5 3-1 2h-3l-2 4h-3l-2 4-7 7-4 2-5 5-2 1v-16l-1-2-14 1h-27l1-9-1-1-1-14 1-1h11l18 2 2-4z" fill="#3F444C"/>
<path transform="translate(1205,729)" d="m0 0 27 3v28h-15v10l-1 8 5 1h38l10-1-1 11h-103l-1-5v-7l47 2 1-17 1-2h-2v3l-7-1-4-4 1-3h2l-5-15v-7z" fill="#6C7586"/>
<path transform="translate(625,90)" d="m0 0h3l1 7-5 28-1 11-4 1-10-5-3 10-6 12-13 20-11 16-5 6-4-1 2-4 2-5-6-5-4 1-5 4h-2l-3 2 2-4 6-7-5-3-1-5 4-6 11-9 8-6 4 2-1 14-3 16 12-20 8-13 8-19-12-2-1-4 12-13 7-8 13-10z" fill="#C3D6EF"/>
<path transform="translate(56,332)" d="m0 0 4 1 6 11 4-3 8-1 1 2-3 3h5l-4 2-6 1 2-3-5-1 1 5 9 11 3 2 7 1 7 4 3-8 2-9 5-2 4 4-3 15-2 5v3l4-1-1-4h2l2 10 3 4v2l-4 2-1 3-2 1 1 2-12 1-4-1v-2h-9l-4 3h-8l4-2-15-11-7-3 2-3h3l-1-1v-5l4-2h8l2-1v2l6 2-9-11-3-3-2 6-3 1-1 3-8 2-8-1-1-4h6l3-2v-5l-4-5 4-5 6-1 1 6h2v2l2-1-2-5-6-10 1-5z" fill="#6D7687"/>
<path transform="translate(1154,439)" d="m0 0 5 1 6 10 11 12 9 9 5 3 10 7 12 5 2 3-4 4-14 9-12 11-10 9-13 10-4-1-1-3 3-8 1-12-11 1h-33l-3-3 1-4 1-2 6 1v-24h-7l-1-4 8-2h18l7 1v2h5v-9l1-9 1-3v-13zm5 15-3 20-2 4-18-2h-11l-1 3 1 12 1 2-1 8h27l14-1 1 2v16l6-4 3-3 8-7 3-3v-2l4-1 1-3h3l6-6-12-7-5-5-12-11-10-10-1-2z" fill="#717B8C"/>
<path transform="translate(190,260)" d="m0 0h8l6 5 1 4 4-1v-3l4 1 8 7 4 7v10l-3 5-7 6-10 4-5 1h-17l-6-3-5-6-1-8 2-9 4-8 8-9z" fill="#41474F"/>
<path transform="translate(208,447)" d="m0 0h9l6 3 9 2 6 5 2 5-1 10-4 8-7 8-9 5-4 1h-8l-10-4-5-4-4-8v-10l6-12 9-7z" fill="#DEF1FA"/>
<path transform="translate(678,22)" d="m0 0h8l9 3 6 4 5 8 1 5v11l-5 10-5 4-8 3h-11l-7-3-5-4-5-9-1-5 1-11 5-9 6-5z" fill="#6E7788"/>
<path transform="translate(1170,6)" d="m0 0 4 2 7 8-1 4-5 3-3 8 1 6 5 4h7l5-1 2 1 2 11-3 3-7 1-4 5-1 2v7l3 6 8 6 2-1-1 5-1 7-11 1-5 2-2 5-1 9 3 5 4 2-3 1-2 4-1 3-3 1-1-4-8-1-8 4-5 6-1 9 4 2-1 4-12 6h-2v-2h-2l-2-7-3-2h-10l-5 3-2 3-1 9-2 1h-12l-1-1-2-10-5-5h-8l-5 3-4 9-5 1-8-7-1-6 2-3h5l3 3 4-5 8-4h11l8 6 4 7v3h2l1-5 6-7 7-3h11l7 4 4 5 2-1 1-10 4-6 6-5 5-2h7l7 3-4-7-2-4v-9l4-7 5-4 13-2-1-3-6-4-5-6-1-8 4-9 5-5h3l-1-6-10-1-6-4-3-5v-11l4-7 3-4-4-3 1-2-2-3z" fill="#717B8C"/>
<path transform="translate(261,11)" d="m0 0h8l9 4 6 4 2 2v6l-2 2-5-1-9-6h-8l-4 4-1 6h19l8 4 4 5 4 13-2 12-6 8-9 4h-13l-9-3-7-6-1-2v-6l2-3h6l5 5 7 3h9l6-4 1-9-3-6v-2l-20-1-7-3-4-8 1-10 4-6 6-5z" fill="#6E7788"/>
<path transform="translate(34,243)" d="m0 0h13l14 4 11 6 10 9 7 10 2 5v14l-5 9-7 7-12 6-12 3h-11l-15-3-12-5-10-9-6-10-1-4v-10l4-13 7-9 7-4 12-5zm8 6 3 2 11 7 1 3-5-2-10-6-7-2h-6l-5 5 1 1h-6l-2-3-6 5-6 12-1 10 3 10 5 7 9 6 9 4 10 2h13l13-3 11-6 1-3h2l4-7 1-2v-10l-5-10-7-7-14-9-13-4z" fill="#6D7687"/>
<path transform="translate(754,25)" d="m0 0h14l10 3 5 5 2 8 1 14v17l-2 2-5-1-1-3-9 3h-13l-7-4-3-3-1-3v-7l3-6 4-5 8-5 14-2v-2l-6-3h-17l-1-1v-5z" fill="#6E7788"/>
<path transform="translate(733,733)" d="m0 0h2l-1 9-1 2h-2v2l-3 2-2 1-1 4-4 2-5 10-5 9-5 5 1 5-2 5h-31l1-5 7-13 11-13 8-8 11-8 14-7z" fill="#6D7687"/>
<path transform="translate(465,27)" d="m0 0h6l10 2 1 1 1 10v24l-2 9-5 8-7 4h-8l-7-4-1-5h2v-2l4 1 2 1h7l5-5 2-6-4 1h-8l-7-4-5-7-1-3v-10l4-8 8-6z" fill="#6E7788"/>
<path transform="translate(1356,119)" d="m0 0 3 2h-2v4h3l4 31 2 21v39l-1 4 19-2h46l50 3 8 1v4h-24l-24-1h-58l-17 2-3 5h-5l-1-1 1-12 2-22v-16l-2-34-1-11z" fill="#6D7687"/>
<path transform="translate(1171,335)" d="m0 0 4 1v2l6-3h7l9 4 6 7 2 5v7l-4 10-5 5-2 1h-12l-6-3v17l-1 2h-6v-51z" fill="#6E7788"/>
<path transform="translate(1211,335)" d="m0 0 4 1v2l6-3 10 1 8 6 4 5 1 3v10l-5 10-6 4h-11l-6-3v15l-2 4h-5l-1-3v-42l2-9z" fill="#6E7788"/>
<path transform="translate(1325,624)" d="m0 0 8 2 6 4 4 5 2 6v10l-4 8-7 5-3 1h-12l-7-4-4-5-3-7 1-12 3-6 6-5z" fill="#6E7788"/>
<path transform="translate(1258,336)" d="m0 0h13l8 4 4 5 3 8v7l-3 8-7 6-6 2h-9l-8-4-6-9-1-11 4-10 6-5z" fill="#6E7788"/>
<path transform="translate(265,333)" d="m0 0h9l8 7 4 6 2 5 1 11-3 7-4 5-8 3-9-1-8-5-4-5-2-4v-12l8-13z" fill="#DFF2FA"/>
<path transform="translate(826,548)" d="m0 0 2 1-2 10 10 1 4 1 5 5-1 4-1 2h-3l2 4h9l5 2 4 6-1 2h-2v6l-1 1 11-1 3 2-13 4-12 7-18 13-6 2-6 4-5 5-8 7-18 18-7 8v-3l7-8 27-27 2-1-1-2 1-2h2l2-4 6-5 3-3 14-10 8-3h3v-5l3-4-4-1 4-4-11 1-14 7-9 7-15 9-4 2 1-3 11-8 14-9 13-8-8 2-12 6-8 6-2-1 14-10 9-5 3-1v-2l-4-1-2-2 7-4h2v-2l-4 1v-2l-13 4-7 5-5 2-5 5-9 6-4 3h-5l6-7 9-6 8-5h3v-2l-5 1-15 10h-2v-3h2v-2h2l1-3 2-2-2-1 10-6v2l3-2h3v3l3 1 4-2 2-3-2-2 3-3h2v-2l-8 1 1-2 8-3z" fill="#3B4048"/>
<path transform="translate(811,631)" d="m0 0 1 2 7 1 1 3v5h2v4l3 3v2l3 2v2h2v2l4 2 2 3-2 4 8 10v2h2l3 4-7 6-4-6-11-6h-6l-8-7-4-3v-2l-5-1-3-3v-2h-2v-2l-3-1-2-2v-3l12-13z" fill="#6D7687"/>
<path transform="translate(205,69)" d="m0 0h13l6 3 7 7 2 6v9l-5 10-9 6h-8l-6-3-5-5-4-11v-13l5-7z" fill="#6E7788"/>
<path transform="translate(1029,557)" d="m0 0h14l25 5 13 5 3 3h-2v5l-3-1 4 6v4l-2 5h-3l1 3h-2l1 3-5-1-3-5-1-9h-4v-2l5-1-4-1-2 3-2-1 1-2-7-1-4 2-8-1-5-1-8 1-4 2v-2l-8-1-4-6 3-4v-6z" fill="#3D424A"/>
<path transform="translate(1375,128)" d="m0 0h2v2h2l2 17 6 16 8 13 11 12 13 9 12 5 13 2 2 1-1-6 2-6 1-13 2-4v2l3-1 2 8 2-5 2 1v2l6 2 2 1v9l5 5v2l-3 1 1 2-1 2-11 3-14 1-17-3-16-8-11-9-10-11-8-14-5-13-3-16v-7z" fill="#6C7586"/>
<path transform="translate(125,142)" d="m0 0 2 1-3 5 11-4h7l4 5 3 7h4l1 3v13l-5 9-6 2h-9l-8-4-6-7-3-5-1-4v-9l3-7z" fill="#3D424A"/>
<path transform="translate(1294,100)" d="m0 0 3 1 5 9v2h4l-1 4-6 4 1 9 8-2 1 5v13l-1 1h-8l-2 11v2l9 2v6l-7 11-7-1-4-2h-4l-2 5 4 6-1 5-13 6h-4l-2-7-8 2h-4v9l-7 2-12 1-2-3 1-4v-4l-10-2-1 7-4 1-15-8-2-2v-3l5-1-3-6-4-4-5 1-3 1-1-4h5l2-3 5 1 6 7 3 1-2 5-1 4 8 4 4 1v-7l3-1 13 4 1 4-1 6 12-1v-10l18-4 3 8 6-2 4-1-3-6-3-3 7-7 3-5 5 1 4 2h3l2-4v-3l-7-4 3-10 2-6h4l5 1v-8l-1-5h-9l-2-10-1-6 6-2h2l-4-8-2-3-5 1z" fill="#6E7788"/>
<path transform="translate(360,31)" d="m0 0h17l6 4 3 4 2 12v24l-2 2-4-1-2-2-6 2h-10l-6-4-3-4v-10l6-9 6-4 9-2h4l-3-3-9-2h-8l-1-1v-5z" fill="#6E7788"/>
<path transform="translate(879,248)" d="m0 0 5 1 1 1v5l-4 2-3 10-3 4-5 1-3-2-2 7-5-1-3-5-2 7h-5v8l-4 33h25l11 2 2 2-1 6-5 1-9-2-1 3-4-1v-3h-17l-1 4-3-1v-3l-8 1-3-2 1-5 7-2h4v-10l3-27-5-10-2-8v-8l4 2 5 6 1 3 1-7 2-2 5 1 5 4 1-4h4l4 5 4-12z" fill="#D6E8F6"/>
<path transform="translate(121,19)" d="m0 0 12 2 9 3 1-2h2l7 11 1 8-3 6-5 4-5 2h-9l-10-3-8-6-3-5v-10l4-6 4-3z" fill="#3C4149"/>
<path transform="translate(226,380)" d="m0 0 9 1 5 5 4 8v10l-4 7-4 3 9 2v1l-10 2h-16l-8-5-3-7 1-9 4-9 8-7z" fill="#DFF2FA"/>
<path transform="translate(430,28)" d="m0 0 6 1 6 4 4 6 1 10-1 2-7 1h-18l2 6 5 4 6 1 6-4 2-3h5l2 5-4 6-8 5h-10l-6-4-5-6-3-7v-13l5-8 5-4z" fill="#6E7788"/>
<path transform="translate(108,401)" d="m0 0 2 1v4l5 1 3 1 2 11-2 1 2 6 3-1 2 6h-2l-1 3-2-1-5-5-5-1v-2h-2l1 8h-2l-2 7-2 5-3-1-1 3-4-1 3-2-2-3-2 1-3-2 3-1v-7l-1-2-4 1-2 2-1 4-3-8v-7l3-7 6-8 10-5z" fill="#3D424A"/>
<path transform="translate(192,255)" d="m0 0h6l5 3h10l8 6 7 8 4 11-1 9-6 9-9 6-11 4-7 1h-11l-10-3-8-7-2-5v-13l5-13 8-10 8-5zm-2 5-8 6-7 9-3 7-1 10 2 7 7 6 3 1h17l13-4 6-4 5-5 1-3v-10l-5-8-8-7-3 1v2l-4 1-2-5-5-4z" fill="#DEF1FA"/>
<path transform="translate(1276,617)" d="m0 0h9l10 5 3 3-1 5-4 1-8-5h-9l-3 6 18 1 6 4 4 5 1 3v9l-4 7-8 5h-14l-9-4-4-4v-5l5-2 7 5 3 1h10l4-2 1-2v-6l-3-4-6-1h-8l-8-3-3-4v-8l4-6 4-3z" fill="#6E7788"/>
<path transform="translate(801,524)" d="m0 0 5 1 5 5 1 4 1 9h-2l2 2 4-1h7l3 3-2 1-8-1-11 4-17 11-7 5-7 4-11 10-8 7-18 18-2-1 28-28h-4l2-4 9-9 5-3 9-7 6-4h3v-2l10-6 3-5-2-1 1-5-13 3-17 11-5 3h-2l-2 4-10 7-2-1v-5l10-9 17-11 11-5 6-1v-2z" fill="#383D44"/>
<path transform="translate(856,29)" d="m0 0 9 1 6 3 5 6 1 3v12l-6 7-7 3h-8l-1-4-6-1-4-6-1-9 3-9 5-5z" fill="#3D424A"/>
<path transform="translate(511,20)" d="m0 0 4 1 2 31 1 7-2 16-3 8-5 5-3 1h-10l-9-4v-5l5-1 6 2h7l4-5 2-9-6 2-9-1-6-7-1-6v-17l1-13 1-3h4v16l1 17 2 4 6 1 6-3 1-2v-34z" fill="#6E7788"/>
<path transform="translate(624,21)" d="m0 0 4 2 1 3 6-3 8-1 8 4 3 4 2 7v31l-2 2-6-1-1-32-2-5-5-1-7 3-2 4v31l-2 2h-5l-2-3-1-45z" fill="#6E7788"/>
<path transform="translate(584,21)" d="m0 0 3 1 1 4 7-3 7-1 7 2 4 4 3 9 1 28-3 5-5-1-1-1-1-33-2-3-5-1-7 3-2 4v31l-2 2h-5l-2-3-1-45z" fill="#6E7788"/>
<path transform="translate(301,254)" d="m0 0h13l6 4 6 9 3 10-1 9-4 5-5 2-9-1-7-6-2-4v-10l3-6 3-3h6l6 7 1 2h3l-2-6-5-5-4-2-7 1-5 5-2 5-1 8h-2l-3-7v-8l4-6z" fill="#6D7586"/>
<path transform="translate(677,30)" d="m0 0h10l6 3 6 7 1 4v8l-3 6-5 4-7 2-7-1-2-3-5-3-3-5v-12l3-6z" fill="#3D424A"/>
<path transform="translate(1102,328)" d="m0 0h14l6 3v2l3 1v5l-5 1-4-3-4-1h-7l-4 1v5l1 1 17 1 5 3 4 5 1 2v13l-6 7-8 3h-8l-10-3-6-5v-5l1-1 7 1v2l10 3 9-1 3-2 1-8-2-5-9-1-11-1-5-3-2-3v-7l4-7z" fill="#A3B3CD"/>
<path transform="translate(126,136)" d="m0 0h12l11 4 7 8 3 6 1 5v9l-3 10-6 7-8 3h-9l-9-4-8-7-5-10-1-3v-13l4-8 8-6zm-1 6-7 6-2 6v9l3 7 4 6 6 5 5 2h9l7-3 4-8v-13l-1-3-5-1-4-9-2-2h-7l-11 4 3-6z" fill="#6E7788"/>
<path transform="translate(785,588)" d="m0 0 2 1-15 13-11 11-7 8-5 5-1 4-8 12h-2l-1 6 6-2 3 1v3l3 1v2l3 1 2 2-11 11 1-5 3-6-5 2v2l-5 4 1-5-1-3 1-3-6 9-2 6v5l3 1-2 6h-3l-2 2-1-5 1-9 3-7 4-16 1-2-3 1-2-2h-4l-1 2-1-4-1-1-5 8-2-4-1-4 3-9 6-8 6-5-2 4-6 7v3 2l11-6h3l1-3h2l1-3h4v2l2 1-2 5h2l4-8 4-5 9-7 13-13z" fill="#3C4149"/>
<path transform="translate(236,315)" d="m0 0 5 1 1 1 4 34-2 2-19 3-5 2-2 4-4 1-1-1v-7l7-6 7-3-17-11-10-6-1-4 4-2 11 6 16 10v-7l4-14z" fill="#E0F3FB"/>
<path transform="translate(853,23)" d="m0 0h12l8 3 7 6 3 7 1 12-3 9-8 7-9 3h-7l-8-3-7-6-4-8v-14l4-9 6-5zm3 6-5 2-5 6-2 7 1 9 4 6 6 1 1 4h8l8-4 5-6v-12l-3-6-6-5-7-2z" fill="#6E7788"/>
<path transform="translate(219,459)" d="m0 0 5 1 3 7h4v-6l2 2-1 8-4 7-5 5-6 4-8 1-8-3-5-5-2-3v-8l4-7z" fill="#6E7788"/>
<path transform="translate(233,146)" d="m0 0h12l8 4 10 9 10 11 3 4v5l-4-1-10-11-7-8-9-6-3-1h-8l-6 4-5 9v14l6 12 8 5h7l7-4 4-6 1-3v-7l-3-5-5-4v-2h7l5 6 2 10-3 9-7 8-7 3h-9l-8-4-7-9-4-12v-8l3-10 4-6z" fill="#A4B4CE"/>
<path transform="translate(888,22)" d="m0 0h5l1 5 8-4h10l6 4 3 6 1 6v29l-4 2-3-2-1-10v-21l-1-5-9-1-6 4-1 3v31l-2 2-6-1z" fill="#6D7687"/>
<path transform="translate(130,260)" d="m0 0h5l5 5 5 4 5 5 5 6 2 1v6l-5 10-3 7-3 2h-5l-1-4 7-10 2-5-28 1-16 4-5 2h-4l-1-5 3-3 14-4 13-2 16-1-5-6-7-7v-5z" fill="#A3B3CD"/>
<path transform="translate(1097,32)" d="m0 0h19l10 3 10 9 4 9 1 4v17l-4 11-7 8-5 4-10 5-7 2h-16l-10-4-7-6-6-10-3-11v-7l1-1h5l3 7 3 12 6 8 9 5 4 1h12l14-5 9-8 4-10 1-13-2-11-5-8-9-6-3-1-11-2h-8l-9 1 3-2z" fill="#6D7687"/>
<path transform="translate(792,4)" d="m0 0 4 2 2 10 15 1v6h-15l2 18 3 15 2 5 5 2 9 1 2 2-1 5-1 1h-12l-6-4-5-6-4-13-2-26h-12v-5l1-1h11l-1-11z" fill="#6E7788"/>
<path transform="translate(123,10)" d="m0 0h12l10 5 6 5 7 14v8l-3 7-7 6-4 2h-14l-11-4-8-7-4-5-1-3v-8l4-8 9-10zm-2 9-5 2-5 6-1 2v10l6 8 10 5 5 1h9l8-4 4-5 1-7-3-8-5-7h-2l-1 2-13-4z" fill="#6D7687"/>
<path transform="translate(904,191)" d="m0 0 6 2 7 5 5 8 2 10-1 11-4 11-1 5 4 7v2h-2l-2 8-4 1 2-7 3-1-2-7-2-1-1 4h-2l-6 4-4-1 3-8-1-4-4 1-5-1v-2l-5-2v-3l8-2v3l5 1v-2l4-1v2h-2v2l5 1 3-11-1-14-4-13-5-3z" fill="#6C7585"/>
<path transform="translate(552,13)" d="m0 0h27l2 4-1 4-12-1 1 10 1 32h8l2 5-2 3h-21l-6-2-1-5 1-1h9l1-42h-6l-3-2z" fill="#6E7788"/>
<path transform="translate(576,148)" d="m0 0 4 2-1 14-4 18 6-2-1 4-8 11-4 1v-4l3-4-2-4-4-3-4 1-5 4h-2l-3 2 2-4 6-7-5-3-1-5 4-6 11-9z" fill="#C1D4EE"/>
<path transform="translate(148,440)" d="m0 0 5 2 12 9 5 3-1-9 2-3 5 1 4 8 4 16v5l-3 2-19 2h-9l-2-2 1-5 9-3h8l3-1-18-13-8-6-1-3z" fill="#E0F3FB"/>
<path transform="translate(785,403)" d="m0 0h11l6 4 3 3-1 5-5-1-3-3-8-1-4 4-2 6v11l3 8 1 3 10 1 4-4 5-11 5-1 3 3-2 6-6 10-5 4-3 1h-9l-5-3-5-6-3-5-1-5v-12l4-11z" fill="#DBEEF8"/>
<path transform="translate(924,256)" d="m0 0 1 2v6l5-1-2 4-9 11-11 12-8 10-7 12-1 3v16h-1l-3-15v-10l3-11 6-11 7-9 7-8 8-7 1-2z" fill="#D7E9F7"/>
<path transform="translate(1154,439)" d="m0 0 5 1 6 10 11 12 5 5 5 6-1 5-8-6-16-16v-2h-2l-2 20-3 5-18-2h-11l1 15-2 9h-2v-25h-7l-1-3 7-2h18l7 1v2h5v-9l1-9 1-3v-13z" fill="#A1B0CA"/>
<path transform="translate(1170,6)" d="m0 0 4 2 7 8-1 4-5 3-3 8 1 6 5 4h7l5-1 2 1 2 11-3 3-7 1-4 5-1 2v7l3 6 8 6 2-1-1 5-1 7-11 1-5 2-2 5-1 9 3 5 4 2-3 1-2 4-1 3-3 1 1-5h2l-4-7-2-4v-9l4-7 5-4 13-2-1-3-6-4-5-6-1-8 4-9 5-5h3l-1-6-10-1-6-4-3-5v-11l4-7 3-4-4-3 1-2-2-3z" fill="#6D7687"/>
<path transform="translate(1446,635)" d="m0 0h10l6 4 4 6v11l-4 6-9 3-6-1v-3l-5-1-4-7v-7l3-7z" fill="#3C4149"/>
<path transform="translate(717,577)" d="m0 0 4 1v2l2 1-10 10-12 16-8 11-2-1h-6l-9 6-1-5 11-21 5-6 2 3-1 3h2v-2l6-4 11-11z" fill="#30363C"/>
<path transform="translate(1241,103)" d="m0 0 10 1 11 4 8 5 7 9 2 6v15l-4 9-6 8-8 6-9 3h-18l-12-6-8-9-1-6 2-2 5 1 7 9 10 5 5 1 13-1 12-6 6-7 2-8v-10l-3-9-5-6-4-2v-2l-5-1-13-4-5-1z" fill="#6E7788"/>
<path transform="translate(878,416)" d="m0 0h14l6 4 2 5 1 8v14l-5 1v-2l-6 2h-9l-5-3-3-5 2-7 5-5 6-3 7-1-2-2-13-1-1-4z" fill="#DCEEF8"/>
<path transform="translate(1319,631)" d="m0 0h9l6 3 4 5 1 2v10l-4 6-6 3h-8l-3-3-3-1-3-5-1-8 2-7z" fill="#3D424A"/>
<path transform="translate(710,25)" d="m0 0 5 1 9 16 3 7 2-2 6-17 3-5h5l2 2-2 10-12 30-5 1-4-5-6-18-8-17z" fill="#6E7788"/>
<path transform="translate(863,169)" d="m0 0h11l17 2 14 4 11 5 13 13 8 15 5 17v18l-5 12-6 8-6 1-1-6 1-5 7-9 3-8 1-4v-14l-3-12-5-10-9-10-13-8-14-4-10-1h-12l-19 3-6 1-4-1v-4l11-2z" fill="#BDCFE7"/>
<path transform="translate(1260,342)" d="m0 0h9l8 5 3 8-1 9-6 5-5 2h-6l-2-3-4-1-3-5-1-8 2-7z" fill="#3D424A"/>
<path transform="translate(1136,336)" d="m0 0h4l1 3v25h2v2l4 1v2l7-3 1-2v-25l2-2h6l2 2-1 25-3 7-3 3-6 2-9-1v-2l-5-1-3-4-1-3v-28z" fill="#6F788A"/>
<path transform="translate(303,12)" d="m0 0 4 2 1 10 10-1 2 1v5l-2 1h-10l2 19 3 14 4 4 8 1 2 4-3 4h-8l-2-1v-2l-4-2-4-4-3-12-2-25h-9l-1-4 1-2 8-1v-7l1-3z" fill="#6F788A"/>
<path transform="translate(390,12)" d="m0 0h5l2 9v2h11l2 4-2 2h-11l3 26 2 7 4 4 4 1 5 1 1 4-2 3-6 1-8-4-5-6-2-6-3-27v-4h-9l-1-4 1-2h9z" fill="#6E7788"/>
<path transform="translate(1446,629)" d="m0 0h11l8 4 5 6 2 5v11l-4 8-7 5-3 1h-11l-8-4-5-7-1-3v-13l3-6 7-6zm0 6-6 5-2 6v7l5 8h4v3l7 1 8-3 4-6v-11l-4-6-6-4z" fill="#6E7788"/>
<path transform="translate(679,104)" d="m0 0h1l1 6 1 20v89l1 20v22l-4-3-1-3-1-24v-83l1-20v-23z" fill="#C1D4EF"/>
<path transform="translate(1418,103)" d="m0 0 9 1 10 8 1 2 5 2 3 9-1 5h3v5l-4 1-4-4-14-4-8-4-4-10-1-5 2-5z" fill="#2D3238"/>
<path transform="translate(114,394)" d="m0 0 10 3 6 4 11 8 4 7 1 3v12l-4 9-6 8-9 6-9 3h-6l2-1v-2l-9-1v-1l16-3 8-5 7-8 3-7v-9l-4-6-11-7-10-6-3-2 2-1z" fill="#A4B4CE"/>
<path transform="translate(820,623)" d="m0 0 5 2 6 12 4 11 6 7v6l4 5 4 6v3l4 2-6 5-3-2v-2h-2l-9-12 2-4-5-5v-2h-2l-4-4v-3l-3-3 1-3h-2l-1-7-7-2-1-3z" fill="#3C4149"/>
<path transform="translate(1048,605)" d="m0 0h7l1 1 5-1-1 4 1 3-4 1-7 3-5-1h-3l-5 3-7 3-4 2-11 4-2 5 5 1-1 4-2 1-1 2-3-2v2l3 2 5-1 12 3-1 2 5 2-2 3-6 1-4-2-6-1h-4l-5-2-1-4 1-3-6-1-3-1-3 3v1l6 2v3l-3 1v-2l-7-3v-3l2-1h-3l-4 2-2-2 1-2h-2l-2-3v-5l4-5 1-2h2l-2 5-2 3 1 3-1 1 9-1 6 1 6-1-3-2 2-4-5-1v-3l9 2 1 2-2 5h3l1-6 12-5h4v-2l10-4h2v-2l7-2 1 2h6l-4-4 1-1-3-1z" fill="#6E7788"/>
<path transform="translate(850,418)" d="m0 0h10l6 4 3 7-1 4-1 1-10 1h-9l2 4 4 3 7-1 4-4 4 1 1 4-7 6-3 1h-7l-6-3-5-6-2-6 1-7 4-6z" fill="#DBEEF8"/>
<path transform="translate(59,539)" d="m0 0 2 1-1 4h8l8-2v2l9-1 2-2 3 1 3 11-2 1 4 1 3-1-1 3-5 1h-3v3l-7 2h-13l-8-5-3-6v-9z" fill="#3F444D"/>
<path transform="translate(1318,320)" d="m0 0 4 1 2 10h12l1 4-1 1-12 1 3 23 3 7 4 3 8 1 1 5-3 2h-7l-8-4-5-10-4-27-9-1-1-4 1-1h10l-1-3v-7z" fill="#6E7788"/>
<path transform="translate(189,104)" d="m0 0 4 1 1 1 1 17 2 1v5l-6 5-3-3-1-13-7 8-10 8-10 7-5-1 1-4 16-12 8-7 2-4-16-2-1-5 1-1z" fill="#6E7788"/>
<path transform="translate(1392,610)" d="m0 0 4 1 2 4v6h12l2 3-1 2-13 1 3 23 3 8 5 3h6l3 3-2 4-7 1-7-3-6-7-2-6-3-22v-5l-8 1-2-1 1-5h9l-1-9z" fill="#6E7788"/>
<path transform="translate(1361,630)" d="m0 0 4 1 1 3 1 22 2 4h8l2-2 1-25 6-2 3 3-1 3v15l-2 10-5 5-2 1h-11l-6-4-3-6v-26z" fill="#6E7788"/>
<path transform="translate(234,274)" d="m0 0 6 2-1 3h-2v5l11-1h24l-6 15-7-1h-9l-5 2-2 2-5-1v-2l2-1-3-3h-6l-2 5-1-3 3-8-1-12z" fill="#40454E"/>
<path transform="translate(1475,629)" d="m0 0h4v4l6-3 8-1 6 3 4 8 1 8-1 21h-5l-1-1v-23l-2-8h-8l-5 5v27l-4 2-2-1-1-6-1-34z" fill="#6E7788"/>
<path transform="translate(192,384)" d="m0 0h5l1 7 1 20-4 1-3-3-2-7-16 8-12 7-3 3-4-2 1-4 8-6 22-12-11-1-2-2 1-4 5-2z" fill="#D5E7F6"/>
<path transform="translate(1168,780)" d="m0 0h8l3 1 29 2 30 1h26l-1 5h-97z" fill="#3D424A"/>
<path transform="translate(267,340)" d="m0 0 4 1 8 6 3 7v11l-5 5-7 1-6-4-5-6-1-5 3-10 5-5z" fill="#6E7788"/>
<path transform="translate(917,353)" d="m0 0 4 2 8 14 3 7 3-4 6-17 1-1h6l1 4-6 17-5 11-3 7-5-1-4-8-5-14-6-12 1-4z" fill="#D6E8F7"/>
<path transform="translate(130,65)" d="m0 0 9 3 10 6 3 3-1 4-5-2-7-4 1 7-1 36-4 1-2-4v-37l-6 2-9 5h-4l1-5 9-6z" fill="#6D7687"/>
<path transform="translate(204,77)" d="m0 0 6 1 8 6h3l-1-4v-3l6 7 1 9-5 8-5 4-7-1-5-5-3-7-1-11z" fill="#3C4149"/>
<path transform="translate(719,591)" d="m0 0 2 2-8 11-8 10v4l7-5v3l2 1-1 2 7-3 8-9 5-6 2 1-3 6-2 3 6-5-2 5-4 2-7 8-7 7-6 1v-2l-5 2-1 2-2-2-2 3-2-12v-7l10-12 6-8z" fill="#3D424A"/>
<path transform="translate(1031,555)" d="m0 0h14l26 6 14 6 18 14 7 7 11 15 7 17 3 12 1 14h-1l-4-21-1-3-3-2-2-4v-3h-2l1-2-1-1v-3l-3-1-1-5h2l-6-8-4-1-5-5-5-7-5-5-11-7-13-5-25-5h-14l-11 1 1 6-3 5 3 4 11 3 4 2v5h-2v-2h-4v-2l-9-3-4-4-8-1-7 1-3-1 3-2 7-1h6l2-5 1-4-3 1-2-1 1-3z" fill="#707A8B"/>
<path transform="translate(755,723)" d="m0 0 1 2-1 4v18l8 1 1-2 5 2v-12h1l2 11 6 1-1-4 3 3 7 1-4 3v5h2l1-4-1 11-1 3h-2l-1-2-1 6h-3v-9l-2 4h-2l-1-4-1 4 4 3-5-1-6-2-3-5-6-8-3-10v-11z" fill="#6B7484"/>
<path transform="translate(194,157)" d="m0 0 6 1 6 5 5 5 4 7 2 1-2 5-15 12-5 2v-4l7-7 5-4-11-4-11-2-14-1-1-5h13l9 1 8 3h3l-11-11z" fill="#A2B2CC"/>
<path transform="translate(1223,341)" d="m0 0 6 1 7 5 2 5-1 9-3 5-4 2-7-1-8-7v-14l5-4z" fill="#3D424A"/>
<path transform="translate(1184,341)" d="m0 0 7 2 6 5 1 2v9l-4 7-3 2-8-1-5-5-3-2v-13l6-5z" fill="#3D424A"/>
<path transform="translate(257,263)" d="m0 0 6 2 11 8 4 5v8l-6 10-5 6h-1l1-9 5-10-35 1v-5l2-1h25l-7-8-2-2 1-4z" fill="#E0F3FB"/>
<path transform="translate(885,354)" d="m0 0 5 1 1 2v6l-5 6-8 4-8 2h-19l-15-4-9-6-1-2 9 3 5 1h20l14-3 6-4z" fill="#DBEEF8"/>
<path transform="translate(622,94)" d="m0 0h2l1 3-7 27-1 7-9-3-10-3-1-4 12-14 7-8h2v-2z" fill="#444953"/>
<path transform="translate(1029,409)" d="m0 0 3 1 1 6 1 25-2 10-4 5-5 2-9-1-5-2 1-4 5 1h9l3-3 1-7-3 1h-8l-5-4-1-3v-24l1-2h3l1 24 2 3h7l3-2z" fill="#D1E2F3"/>
<path transform="translate(730,612)" d="m0 0 1 2-7 8-4 5-3 5-1 5h-4l-1-3-6 8-2 6h-2v5l-8-2-2-5v-10l1-2 1-10 4-9h1l3 13 4 1 5-2 1 1 6-2 11-11z" fill="#6D7586"/>
<path transform="translate(787,512)" d="m0 0 4 1 1 7 2 3 3 2-19 10-16 10-6 4-3-2 1-6 4-5 7-5h2v-2h3v-2h3v-2l10-4 4-6-2-2z" fill="#3F444C"/>
<path transform="translate(845,314)" d="m0 0h1v5h25l11 2 2 2-1 6-5 1-9-2-1 3-4-1v-3h-17l-1 4-3-1v-3l-8 1-3-2 1-5 7-2h4z" fill="#D8EAF7"/>
<path transform="translate(778,534)" d="m0 0 2 1-16 11-11 10-11 9-25 25-12 16-7 9-4 9-4-1-2 4-1-2-7 2-5 2v-9l2 2 8-6h6 3l6-9 14-18 12-12 7-8 7-7 11-9 14-11z" fill="#D5E7F4"/>
<path transform="translate(466,34)" d="m0 0 6 1 4 3v17l-3 3-3 1h-7l-5-4-2-4v-8l4-6z" fill="#3D424A"/>
<path transform="translate(826,548)" d="m0 0 2 1-2 10 10 1 4 1 1 4h-6v-2l-13 4-7 5-5 2-5 5-9 6-4 3h-5l6-7 9-6 8-5h3v-2l-5 1-15 10h-2v-3h2v-2h2l1-3 2-2-2-1 10-6v2l3-2h3v3l3 1 4-2 2-3-2-2 3-3h2v-2l-8 1 1-2 8-3z" fill="#3B4048"/>
<path transform="translate(192,255)" d="m0 0h6l1 4-11 3-8 7-5 8-2 5-1 10 2 7 6 5 6 3 14 1-2 4h-11l-10-3-8-7-2-5v-13l5-13 8-10 8-5z" fill="#B5C6E2"/>
<path transform="translate(107,188)" d="m0 0 5 4v8l1 4-4 2-3-1-8 11-12 13-11 10-3 1 1-4 10-10 6-5 11-14 5-10-12 4-7 2-5-1v-4l13-4z" fill="#6E7788"/>
<path transform="translate(330,31)" d="m0 0 3 3 1 2 5-3 9 1 5 3-1 5-5-1-7-1-4 4-1 3-1 28h-4l-2-5v-38z" fill="#6E7788"/>
<path transform="translate(909,402)" d="m0 0h3l1 2v6h10l1 4-2 1h-9l4 21 2 4 9 2 1 4-6 2-7-3-4-4-2-7-2-19h-7l-1-4 2-1h6v-7z" fill="#D5E8F4"/>
<path transform="translate(801,524)" d="m0 0 5 1 5 5 1 4-2 2-1-5-9-1v2l-8 3-21 13h-2l-2 4-10 7-2-1v-5l10-9 17-11 11-5 6-1v-2z" fill="#41464F"/>
<path transform="translate(884,337)" d="m0 0 5 1 2 3-1 5-5 4-16 5-6 1h-20l-10-3-2-2 14 1 18-3 13-5z" fill="#DCEFF9"/>
<path transform="translate(1209,734)" d="m0 0 19 2-2 20-17-1-1-7v-8z" fill="#3D424A"/>
<path transform="translate(831,29)" d="m0 0h5l1 1-1 40-2 4-3 1-4-2-1-4 2-20 1-14z" fill="#6E7788"/>
<path transform="translate(1291,337)" d="m0 0 3 1 2 3 4-2h9l6 3-1 5-12-2-5 4-1 4v23l-4 1-2-3-1-14v-22z" fill="#6E7788"/>
<path transform="translate(1439,148)" d="m0 0 5 1h3v23l-2-1-1 2h-7l-7-9 1-7 2-3 1-5z" fill="#2D3238"/>
<path transform="translate(984,398)" d="m0 0h5l1 8h10l-1 4h-9l3 21 3 5 9 2-1 4-7 1-6-4-3-4-2-9-1-16h-8l-1-3 1-1h7z" fill="#D4E6F5"/>
<path transform="translate(1184,53)" d="m0 0m-1 1v3l-4 6v7l3 6 8 6 2-1-1 5-1 7-11 1-5 2-2 5-1 9 3 5 4 2-3 1-2 4-1 3-3 1 1-5h2l-4-7-2-4v-9l4-7 5-4 13-2-1-3-6-4-5-6-1-8 4-9z" fill="#6E7788"/>
<path transform="translate(773,46)" d="m0 0h4l1 11-4 5-5 2h-12l-3-3 1-6 7-6 4-2z" fill="#3D424A"/>
<path transform="translate(837,386)" d="m0 0h5l3 4h-2l3 3 6 1 7-3 3-2 5 1 2 3-1 5-5 4-2 1h-12l-9-4-3-4-1-6z" fill="#DDF0F9"/>
<path transform="translate(141,278)" d="m0 0 3 1v2l-6 1 2 1v2l10 1-1 2h-28l-16 4-5 2h-4l-1-5 3-3 14-4 13-2 16-1z" fill="#6E7889"/>
<path transform="translate(1054,579)" d="m0 0h6v3l3 4 3 1v2l-6-2-3-4-2 1 1 3-2 3 4 3v-2h2l3 10h2l1 8-3-2-1-5-4-3v-3h-3l-2-1v-2h-5v2h-2l1 4-6 1-1 4h-4l1-6h-2l-4-4v-3l10-3h5v2h2l-1-3h3l3-6z" fill="#6E7789"/>
<path transform="translate(763,531)" d="m0 0 2 1-5 4h-2l-2 4-2 3v4l2 1-2 4-11 9-8 6-5-1-1-4 5-5 11-12h2l2-4 9-7z" fill="#2E333A"/>
<path transform="translate(716,724)" d="m0 0 12 2 9 2-2 1 2 2-1 13-3 5h-2v-5h2l2-11-16 6-10 6-11 9-8 8-9 12-7 15-3-1 4-10 8-12 11-12 8-8 14-9 10-4 5-1-15-5z" fill="#DCEEF9"/>
<path transform="translate(228,387)" d="m0 0 6 2 3 6v9l-5 5-2 1h-8l-5-4-1-7 2-5h7l6 2v-5l-5-2z" fill="#6E7788"/>
<path transform="translate(242,213)" d="m0 0 5 1 1 6 4 10-4 1-4-8-2-1-2 5-9 15-9 11-3 3-3-1 6-7 10-15 7-12-6 1-10 2v-4l15-6z" fill="#C5D8F0"/>
<path transform="translate(249,165)" d="m0 0h7l5 6 2 10-3 9-7 8-7 3h-9l-8-4-5-6 1-2 3-1 5 5 5 3h7l7-4 4-6 1-3v-7l-3-5-5-4z" fill="#B9CBE7"/>
<path transform="translate(114,394)" d="m0 0 10 3 6 4 11 8 4 7 1 4-1 4-3 1-3-5-4-6-11-7-10-6-3-2 2-1z" fill="#A2B2CC"/>
<path transform="translate(739,650)" d="m0 0 1 2-3 6 2 1v2l3-1v-2l5-2-2 6-2 9-5 9h-2v4h-7l-2-1 1-4 3 1 2-6-4-1 1-8 4-8z" fill="#666E7E"/>
<path transform="translate(1351,617)" d="m0 0 3 1 1 5-1 44-4 2-3-3 1-44 1-4z" fill="#6E7788"/>
<path transform="translate(1036,10)" d="m0 0 1 3h4l2 4v12l-4 8-7 6-11 3 5 5 6 7 1 2v9h-1l-2-10-5-6-8-2-1-3 1-1 1-7 12-2 5-4 2-5v-9l-5-5z" fill="#6D7687"/>
<path transform="translate(943,414)" d="m0 0h3l9 16 6-15 3-1 2 1-1 7-8 20-5-1-8-20-2-3z" fill="#D6E8F7"/>
<path transform="translate(763,672)" d="m0 0 2 1-1 6-2 8-7 13-2 5h-1l-1-11h-3l1-9 6-10 5-1z" fill="#6D7687"/>
<path transform="translate(758,563)" d="m0 0 2 1-7 6-2 4 10-9 2 1-16 15-22 22h-4l-2 1 2-4 8-10 8-7 5-6h2l1-3 8-7z" fill="#363C43"/>
<path transform="translate(374,51)" d="m0 0h7v11l-4 5-4 1h-7l-4-3v-5l5-6z" fill="#3D424A"/>
<path transform="translate(838,180)" d="m0 0 2 1 3 3v4h-2l1 4-4 1-1 2-1-3-3-1-4 6h-2v2l-6 3-7 3v-3l7-9 10-9z" fill="#4F5661"/>
<path transform="translate(366,248)" d="m0 0h34l-1 3-49 3h-13v-1l-6-1v-1l17-2z" fill="#CFE1F2"/>
<path transform="translate(1426,629)" d="m0 0 3 1v29l-1 8-2 2-5-1 2-34z" fill="#6E7788"/>
<path transform="translate(998,370)" d="m0 0h8l4 4 1 8-4 5-7 1-5-4-1-2v-8z" fill="#687181"/>
<path transform="translate(43,266)" d="m0 0h4l1 2 2 16v8l-3 2-4-3-1-7v-10l-8 5-4-1 1-4 9-6z" fill="#6E7788"/>
<path transform="translate(820,415)" d="m0 0 4 1v2l4-2h7l5 2-1 5-4-1h-7l-2 3-1 21h-4l-1-1-1-18v-11z" fill="#D6E8F4"/>
<path transform="translate(562,180)" d="m0 0 4 1 6 5-2 5-3 4-17-1-10-2 1-2h7l8-6h2z" fill="#687080"/>
<path transform="translate(885,354)" d="m0 0 5 1 1 2v6l-5 6-8 4-11 2-2-2 4-1h3v-3h-3l2-4 8-4z" fill="#DEF1FA"/>
<path transform="translate(1212,731)" d="m0 0 20 1v28h-12l-2-2 3-3h4l2-18-16-3z" fill="#757E91"/>
<path transform="translate(1013,632)" d="m0 0 5 1-1 4-2 1-1 2-3-2v2l3 2 5-1 12 3-1 2 5 2-2 3-6 1-4-2-6-1h-4l-5-2-1-4 1-3-2-2 3-1-1-3z" fill="#636B7A"/>
<path transform="translate(965,367)" d="m0 0h9l5 4v2l-4-1-2-1h-7l-2 4h11l4 2 1 2v6l-5 5h-10l-5-4 1-4 8 4 6-1 1-5-12-1-3-2v-6z" fill="#D8EBF7"/>
<path transform="translate(688,603)" d="m0 0 4 3 2 2 4 1-2 5-4 4-1-1h-6l-9 6-1-5 7-14z" fill="#6D7687"/>
<path transform="translate(910,201)" d="m0 0 4 1 5 7 1 3v18l-3 10h-2v3h-2l-2 4-1-3 2-3h-2l3-9 2-12h2l-2-2-4-15z" fill="#444A53"/>
<path transform="translate(999,366)" d="m0 0 8 1 6 5 1 3v8l-5 6-2 1h-10l-5-5-1-2v-10l5-6zm-1 4-4 4v8l5 5 4 1 5-2 3-4-1-8-4-4z" fill="#DAEDF8"/>
<path transform="translate(992,364)" d="m0 0h2l1 5-3 4-1 12-3-1-1-15h-3v8l-2 8h-1v-6h-2l-1-2-3-1-11-1 1-4 1-1h7l3 2 4-1 2-4 6 1 1-3z" fill="#636B7A"/>
<path transform="translate(980,173)" d="m0 0 4 1 1 4-3 3h-5v2l-15 6h-7l1-4 5-4 12-5z" fill="#7C879A"/>
<path transform="translate(1294,100)" d="m0 0 3 1 5 9v2h4l-1 4-6 4 1 9 8-2 1 5v13l-5 1 2-1v-8l-1-5h-9l-2-10-1-6 6-2h2l-4-8-2-3-5 1z" fill="#6E7788"/>
<path transform="translate(1097,577)" d="m0 0 6 4 7 7 11 15 7 17 3 12 1 14h-1l-4-21-1-3-3-2-2-4v-3h-2l1-2-1-1v-3l-3-1-1-5h2l-6-8-4-1-5-5-5-7z" fill="#6C7586"/>
<path transform="translate(904,191)" d="m0 0 6 2 7 5 5 8 2 10-1 11-4 11-2 2 2-10v-18l-4-8-7-5-5-3z" fill="#B9CBE6"/>
<path transform="translate(1019,369)" d="m0 0h3v2l4-2h6l4 4 1 12-1 8h-3l-1-18-1-1h-5l-2 2v17h-4z" fill="#D1E3F3"/>
<path transform="translate(940,242)" d="m0 0 1 4-7 14-3 3-6 1-1-6 1-5 8-10 3 1 4 1z" fill="#C3D6F1"/>
<path transform="translate(677,214)" d="m0 0 3 1 2 4 1 20v22l-4-3-1-3-1-24z" fill="#BFD2EC"/>
<path transform="translate(107,370)" d="m0 0h2l2 10 3 4v2l-4 2-1 3-2 1 1 2-12 1 2-4h2l-1-4 1-5 1-3 2-1 2-4h3z" fill="#687181"/>
<path transform="translate(580,183)" d="m0 0 5 2-1 6 1 4-1 2 4-1h1l7 2v2l4 2v2l-6-1-23-7 4-6z" fill="#6C7485"/>
<path transform="translate(863,169)" d="m0 0h11l17 2 11 3-2 2-8-2-10-1h-12l-19 3-6 1-4-1v-4l11-2z" fill="#B4C5E1"/>
<path transform="translate(822,618)" d="m0 0h3v5l4 4v2h2l6 15 6 11-1 4 3 1 4 8 1 7-3-4-6-9-2-8-6-8-6-16-2-5-5-1-1 1h-5l5-5z" fill="#2D3238"/>
<path transform="translate(1102,328)" d="m0 0h14l6 3v2l3 1v5l-5 1-4-3-4-1h-7l-3 1-3-5z" fill="#7B8699"/>
<path transform="translate(625,90)" d="m0 0h3l1 7-3 17-5 3-1-4 4-17v-2l-4 3h-2v2l-12 12-2-1 1-4 11-10z" fill="#B5C6E3"/>
<path transform="translate(194,157)" d="m0 0 6 1 6 5 5 5 4 7 2 1-2 5-2 1-2-1-2-8-5-2-5-3-7-7z" fill="#798396"/>
<path transform="translate(989,637)" d="m0 0h3l3 2-3 1 1 3 7 2-2 7 8 3 1 3h-2v-2l-2 1v2l-3 3h-2l-3-5-5-7v-2h-2l-5-6 1-2 4-1z" fill="#3F444C"/>
<path transform="translate(985,573)" d="m0 0 2 3 10 1 2 2-3 5h-3l-1 5h-4v2l-6 2 1-4-3-9h2l1-6z" fill="#3D424A"/>
<path transform="translate(969,612)" d="m0 0 6 2 4 11-3 5-2-1 2-3h-2l-1 4 2 5 9 3-1 4-9-6-4-6v-5l-2 1h-5l-1-6 2 1 3-2z" fill="#707A8B"/>
<path transform="translate(752,249)" d="m0 0 11 1 6 2v2l-19 3-11 1-3-3 2-4z" fill="#D4E6F5"/>
<path transform="translate(252,151)" d="m0 0 5 2 11 11 8 10v5l-4-1-10-11-7-8-4-4z" fill="#B6C8E4"/>
<path transform="translate(691,591)" d="m0 0 2 3-1 3 3-1 6 3 1 4-1 4-2 2h-5l-6-5h-4l-1 2 1-5 4-6z" fill="#41464F"/>
<path transform="translate(826,548)" d="m0 0 2 1-2 10 10 1 4 1 1 4h-6v-2l-13 4-7 5h-2l2-6 4-2 2-3-2-2 3-3h2v-2l-8 1 1-2 8-3z" fill="#383D45"/>
<path transform="translate(364,300)" d="m0 0 3 1-2 3-12 3-16 1-11-3-3-1v-3l7 1h21z" fill="#B8CAE5"/>
<path transform="translate(681,173)" d="m0 0h1l-1 49-3-4-1-4v-38l2 2-1 2h2z" fill="#D4E6F6"/>
<path transform="translate(778,665)" d="m0 0 7 2 3 3 13 6-4 1-22-1-4-2 4-6z" fill="#1D2226"/>
<path transform="translate(771,564)" d="m0 0h2v3l4-1-2 5-11 10-8 7-18 18-2-1 28-28h-4l2-4z" fill="#454C56"/>
<path transform="translate(1164,777)" d="m0 0 29 1 12 1v3l-2 1h-13l-11-1-11-2-1 8-2 1-1-5z" fill="#6E7788"/>
<path transform="translate(860,113)" d="m0 0 4 1 2 4v23l-1 5h-3l-3-25v-7z" fill="#717A8C"/>
<path transform="translate(573,157)" d="m0 0h2l-1 9-2 10h-3l-10-5v-3l10-8z" fill="#4A505B"/>
<path transform="translate(987,622)" d="m0 0h2l-2 5-2 3 1 3-1 1 9-1 6 1 4-1 5 4-3 3-7-2-3 3v1l6 2v3l-3 1v-2l-7-3v-3l2-1h-3l-4 2-2-2 1-2h-2l-2-3v-5l4-5z" fill="#646C7B"/>
<path transform="translate(933,413)" d="m0 0h3v27l-3 4-4-2 2-25z" fill="#D2E4F3"/>
<path transform="translate(1136,336)" d="m0 0h4l1 3v25h2v2l4 1v2l6-1-3 3-5 1-8-3-2-5v-9h1l1 5h2l1-9-3-1 2-1v-5l-2 1v8h-2v-16z" fill="#8793A8"/>
<path transform="translate(1039,574)" d="m0 0 5 1 8 2v4l-4 3h-3l-1 2h-4-5v-2l3-3-2-1v-2l-6-1 2-2zm17 0 8 1-2 3v-2l-4 1-5-1z" fill="#687181"/>
<path transform="translate(763,165)" d="m0 0 6 1 9 7 10 6 1 4-2 1-19-10-6-4z" fill="#D2E4F5"/>
<path transform="translate(778,534)" d="m0 0 2 1-16 11-11 10-11 9-6 6-5 3-4 3 2-4 11-11 11-9 14-11z" fill="#D9ECF8"/>
<path transform="translate(841,563)" d="m0 0 4 2-1 5-1 2h-3l1 5-14 5-11 7-4 3-2-1 14-10 9-5 3-1v-2l-4-1-2-2 9-5h2z" fill="#3F444D"/>
<path transform="translate(1012,410)" d="m0 0h3l1 24 4 4 3 1v3h-8l-3-3-1-3v-24z" fill="#D5E7F5"/>
<path transform="translate(1446,319)" d="m0 0h6l-4 8-9 10-5-1 1-6 5-7z" fill="#3D424A"/>
<path transform="translate(798,173)" d="m0 0 3 2 1 5 1 3h2v-3l5 1v2l2 1-3 4-1 4 2 1-3 3h-2v2h-3l-1 7h-2v-6l4-4-1-5h2l-1-5-6-2z" fill="#6E7788"/>
<path transform="translate(975,416)" d="m0 0 2 1v27l-2 3-4-1 1-23 2-6z" fill="#D1E3F4"/>
<path transform="translate(845,314)" d="m0 0h1v5h14l-2 2-5 3-12 2v1l-6 1-3-2 1-5 7-2h4z" fill="#DCEFFA"/>
<path transform="translate(177,401)" d="m0 0 2 1-2 5-3 3-12 7-3 3-4-2 1-4 8-6z" fill="#C1D3ED"/>
<path transform="translate(1026,373)" d="m0 0h5l2 2v18l-3-4h-3l-2-3-2 2v-12z" fill="#646C7B"/>
<path transform="translate(948,783)" d="m0 0h14l6 3 1 3h-30l4-4z" fill="#2D3238"/>
<path transform="translate(740,540)" d="m0 0 2 1-3 5-10 9-15 15-8 7-6 4 2-4 31-31z" fill="#515763"/>
<path transform="translate(890,430)" d="m0 0h5v8l-5 4h-8l-2-1v-5l6-5z" fill="#6E7788"/>
<path transform="translate(574,150)" d="m0 0h2l-2 5 2 1-16 12-4 2v4h-2l-1-5 4-6 11-9z" fill="#D4E6F5"/>
<path transform="translate(145,420)" d="m0 0h1v11l-4 9-4 4-3-3v3l-4 1v-3l5-6 3-7 1-6 5 1z" fill="#A9BAD5"/>
<path transform="translate(912,423)" d="m0 0h2l4 15 3 3 7 1 1 4-6 2-7-3-4-4-1-3v-8l2 1z" fill="#DDEFF9"/>
<path transform="translate(130,260)" d="m0 0h5l10 10h-2v7l-4-1-7-6-3-4v-5z" fill="#788396"/>
<path transform="translate(1121,471)" d="m0 0 15 1-3 1v2l-2-1-1 1h-5l1 17-2 9h-2v-25h-7l-1-3z" fill="#A3B3CD"/>
<path transform="translate(685,616)" d="m0 0h6l2 4-5 7-1-2-7 2-5 2v-9l2 2z" fill="#C4D7F2"/>
<path transform="translate(719,591)" d="m0 0 2 2-8 11-7 9-5-1 2-5 11-14z" fill="#2F343A"/>
<path transform="translate(810,211)" d="m0 0 5 5 4 2 3 3-5 3-2 5-3-3-7-1-1-4 3-3z" fill="#6E7788"/>
<path transform="translate(840,256)" d="m0 0 4 2 5 6v8l-1 3-1 4h-2l-4-10-1-5z" fill="#C4D5E3"/>
<path transform="translate(1146)" d="m0 0h6l3 6 3 2 7 1 1 2 4 2-3 1h-10l-7-4-4-8z" fill="#6D7687"/>
<path transform="translate(733,601)" d="m0 0 2 1-3 6-2 3 6-5-2 5-4 2-7 8-3 3h-2v-2h-2l-1-4 5-2 8-9z" fill="#32373E"/>
<path transform="translate(1010,410)" d="m0 0h1v9l-1 3v13l-2-3v-2l-7 1-3-4 2-5 1-1h7l1-8z" fill="#3D424A"/>
<path transform="translate(814,625)" d="m0 0 3 1-5 4-15 15-5 6-5 4-4 1 2-4 23-23z" fill="#21262A"/>
<path transform="translate(975,246)" d="m0 0h22l2 4-2 2-13-1-12-1-2-2z" fill="#B5C7E3"/>
<path transform="translate(1452,162)" d="m0 0 2 3 6 1v2h2l1 2h10l4 2-2 3-9-1-5 1-11-4 1-4-1-4z" fill="#6D7687"/>
<path transform="translate(196,256)" d="m0 0 6 1 3 1h8l2 4v3l-5 1-1 3h-4l-4-6-5-4h3v-2z" fill="#C7D9F2"/>
<path transform="translate(812,273)" d="m0 0 5 5 8 13 3 7 1 5v10l-2-3-3-13-7-11-6-7z" fill="#D5E8F4"/>
<path transform="translate(1012,560)" d="m0 0h4v6l-3 4h-11l-5 1v-2h3v-2l-2-1 11-5z" fill="#3D424B"/>
<path transform="translate(170,168)" d="m0 0h13l9 1 1 3 3 1-3 2-22-2z" fill="#808B9F"/>
<path transform="translate(716,724)" d="m0 0 12 2 9 2-2 1 2 2-1 13-3 5h-2v-5h2l2-11-4 1-1-3-12-3-2-1z" fill="#A8B8D3"/>
<path transform="translate(239,223)" d="m0 0h2l-2 6-9 14-8 10-3 3-3-1 6-7 10-15 5-9z" fill="#CFE1F2"/>
<path transform="translate(1028,446)" d="m0 0h3l1 5-4 5-5 2-9-1-5-2 1-4 5 1h9l3-3z" fill="#D7E9F5"/>
<path transform="translate(161,282)" d="m0 0 4 4-1 4 3 11h-2v2l-7 1-4-2 5-5h2l-1-5-2-2 1-5h2z" fill="#6B7485"/>
<path transform="translate(212,259)" d="m0 0 4 1 8 7 3 4v6l-4 1-4-6-6-5v-2h2z" fill="#D4E6F5"/>
<path transform="translate(171,302)" d="m0 0h6l6 3 3 2 14 1-2 4h-11l-10-3-6-5z" fill="#C0D3EE"/>
<path transform="translate(813,567)" d="m0 0 2 2-2 1zm-3 3h3v2l-8 7-9 6-4 3h-5l6-7 9-6z" fill="#3C4149"/>
<path transform="translate(427,36)" d="m0 0h6l5 4 1 3-1 1-18 1 2-5z" fill="#3D424A"/>
<path transform="translate(159,466)" d="m0 0 7 1v3 3l-4 3h-9l-2-2 1-5z" fill="#D3E5F5"/>
<path transform="translate(208,303)" d="m0 0 3 1 1 5-7 2h-11l4-2-16-2v-1l18-1z" fill="#D3E5F5"/>
<path transform="translate(852,249)" d="m0 0 3 1 3-1v2h2l1-2 2 5 2 2h-2l-1 3-4 1-6-1-2-3 1-6z" fill="#6D7686"/>
<path transform="translate(848,274)" d="m0 0 1 2 2 1-4 36-3 2 1-17 2-16-1-4z" fill="#D6E8F5"/>
<path transform="translate(1030,618)" d="m0 0v3l-4 2-11 4-2 6-2-1 1-6 12-5h4v-2zm-30 5 9 2 1 2-2 5 3 1-2 3-4-1v-3l-2-1 2-4-5-1z" fill="#6D7687"/>
<path transform="translate(798,568)" d="m0 0 2 1-5 5h-2v2h-2l1 4-6 5h-3l1-5 2-3-2-1 8-6z" fill="#2C3137"/>
<path transform="translate(1009,456)" d="m0 0 14 1 5-1-1 2-7 4-5 2h-6l-3 2-1-3 3-1z" fill="#434952"/>
<path transform="translate(1199,170)" d="m0 0 5 1 6 7 3 1-2 5-1 2-3-1-1-5-5-5-5 1-3 1-1-4h5z" fill="#818DA1"/>
<path transform="translate(835,581)" d="m0 0 2 1-11 9-21 13-4 2 1-3 11-8 14-9z" fill="#3E434B"/>
<path transform="translate(158,286)" d="m0 0 2 3-1 1 2 2v5h-2l-2 4-7 2 2-8 4-8z" fill="#444A53"/>
<path transform="translate(839,173)" d="m0 0h2v3l4 1-12 6-6 2-1-2 2-2v-3z" fill="#C4D7F0"/>
<path transform="translate(992,364)" d="m0 0h2l1 5-3 4-1 12-3-1-1-15-5-1 2-1 4 1 1-3z" fill="#5E6674"/>
<path transform="translate(325,334)" d="m0 0 12 1h25l-1 3h-32l-5-2z" fill="#D5E7F5"/>
<path transform="translate(943,414)" d="m0 0h3l7 13v4h-2l-1 3-8-16z" fill="#DBEEF8"/>
<path transform="translate(991,430)" d="m0 0 3 3 2 3 9 2-1 4-7 1-6-4-2-2 1-3z" fill="#DAECF7"/>
<path transform="translate(962,414)" d="m0 0 4 1-1 7-4 10-2 1 1-4h-3l1-7z" fill="#DCEFF9"/>
<path transform="translate(904,191)" d="m0 0 6 2 7 5 2 5-3-1-1 2-7-5-5-3z" fill="#BECFE9"/>
<path transform="translate(249,165)" d="m0 0h7l5 6 1 5-1 8h-2l-3-11-7-6z" fill="#B2C3E0"/>
<path transform="translate(1188,142)" d="m0 0h2l4 12 2 2-1 4-6 3h-2l-1 2-1-3 5-4-2-6z" fill="#768193"/>
<path transform="translate(954,369)" d="m0 0h2v23l-4 1-1-3 2-20z" fill="#D8EBF6"/>
<path transform="translate(148,440)" d="m0 0 5 2 5 5-1 5h-3l-8-6-1-3z" fill="#BFD2ED"/>
<path transform="translate(248,283)" d="m0 0h22l-2 4-2-1 1 4-5 4-7-2v-2l7-3 1-2h-13z" fill="#6E7788"/>
<path transform="translate(579,180)" d="m0 0h2l-1 4-8 11-4 1v-4l4-7 3-4z" fill="#B6C7E4"/>
<path transform="translate(799,606)" d="m0 0 2 1-11 10-25 25-5 6v-3l7-8 16-16 4-5 11-9z" fill="#555C69"/>
<path transform="translate(227,188)" d="m0 0 7 6 4 2v2h8l-2 2-7 1-8-4-5-6 1-2z" fill="#B4C5E2"/>
<path transform="translate(604,108)" d="m0 0 1 3-2 4-5 7 1 4-2 1-6-2 1-4z" fill="#BDD0EB"/>
<path transform="translate(690,758)" d="m0 0h2l-2 4-9 12-7 15-3-1 4-10 8-12z" fill="#D5E8F5"/>
<path transform="translate(977,658)" d="m0 0 5 2 3 5 1 4-4 1-3 3-2-3 1-5-3-1 2-1z" fill="#646C7B"/>
<path transform="translate(984,369)" d="m0 0h3v22l-4 1v-15z" fill="#D8EAF7"/>
<path transform="translate(1065)" d="m0 0h2l-2 6-4 4-4 2h-11l-4-2-2-5 3-1 1 3 4 2 9-1 6-5z" fill="#6B7485"/>
<path transform="translate(323,301)" d="m0 0 7 1 16 2-1 4h-8l-11-3-3-1z" fill="#CBDDEF"/>
<path transform="translate(830,187)" d="m0 0 4 1-2 5-3 4h-2v2l-6 3-4 1 5-8h3l1-5h3z" fill="#6E7788"/>
<path transform="translate(1136,336)" d="m0 0h4l1 3v11l1 16-2-1v-14l-3-1 2-1v-5l-2 1v8h-2v-16z" fill="#A2B2CC"/>
<path transform="translate(368,248)" d="m0 0h32l-1 3-20 1 1-2-12-1z" fill="#AFBFDB"/>
<path transform="translate(985,643)" d="m0 0 4 2 7 10h2l-3-3 2-2 2 3 7 2 1 3h-2v-2l-2 1v2l-3 3h-2l-3-5-5-7v-2h-2z" fill="#70798A"/>
<path transform="translate(933,413)" d="m0 0h3v27l-2 2-1-18-1-1v-9z" fill="#D5E8F4"/>
<path transform="translate(322,68)" d="m0 0 4 1 1 3-3 4h-8l-2-1 1-5z" fill="#7E899D"/>
<path transform="translate(682,239)" d="m0 0h1v22l-4-3-1-3v-9l1-2h2z" fill="#A1B1CB"/>
<path transform="translate(681,185)" d="m0 0h1v19l3 1v5h3l-1 3h-2l-2 1v4l2 1-3 1-1-1z" fill="#545B67"/>
<path transform="translate(811,624)" d="m0 0m-1 1m-1 1m-1 1v3l-24 24-7 8v-3l7-8z" fill="#3E434B"/>
<path transform="translate(1093,578)" d="m0 0 5 5 5 7h2l3 4-1 2-3-2 2 8-2 1-2-4-2 1v-5l-2-1 1-5-6-9z" fill="#6F788A"/>
<path transform="translate(1019,595)" d="m0 0h4v2h-2v5h6v3l-5 5h-2l-1 3h-2v-2h2l1-5-2-1 1-4-1-5z" fill="#6E7788"/>
<path transform="translate(762,547)" d="m0 0 2 1v2l5-1-5 5-7 5-2-1v-5z" fill="#32373E"/>
<path transform="translate(845,314)" d="m0 0h1l1 7-7 1v3l1 2-6 1-3-2 1-5 7-2h4z" fill="#DFF1FA"/>
<path transform="translate(679,104)" d="m0 0h1l1 6 1 20-1 9-2-4-1-7v-23z" fill="#D2E4F3"/>
<path transform="translate(1014,426)" d="m0 0h1l2 10 6 3v3h-8l-3-3v-10h2z" fill="#DFF2FB"/>
<path transform="translate(1124,471)" d="m0 0h15l7 1-3 1-1 4-17-1v-1h5v-2l2 1 1-1-9-1z" fill="#7C879B"/>
<path transform="translate(935,260)" d="m0 0h3v2h2l-1 6-7 3-5 2 2-5z" fill="#6E7788"/>
<path transform="translate(1038,590)" d="m0 0 9 1-3 7-7-1-2-1v-3l-2-1z" fill="#3E434B"/>
<path transform="translate(576,196)" d="m0 0 12 2 2-2 6 2v2l4 2v2l-6-1-17-5z" fill="#606877"/>
<path transform="translate(711,633)" d="m0 0 1 3 2-1-3 10-2 2h-3v-4l-2 4-1-3 6-9z" fill="#AFC0DB"/>
<path transform="translate(990,411)" d="m0 0 4 1h-2l3 9h2v2h-2v9l2 4-3-1-3-8-1-7z" fill="#494F5A"/>
<path transform="translate(839,182)" d="m0 0 4 1v5h-2l1 4-4 1-1 2-2-6-1-5z" fill="#6B7384"/>
<path transform="translate(576,148)" d="m0 0 4 2-1 14-1 3-2-1-2-11z" fill="#C6D8F0"/>
<path transform="translate(770,583)" d="m0 0 2 1-15 14-12 12-5 6v-3l11-12 16-16z" fill="#454A54"/>
<path transform="translate(1097,577)" d="m0 0 6 4 7 7v5l-4-2-5-5-4-6z" fill="#656D7D"/>
<path transform="translate(1039,95)" d="m0 0 2 4-1 8-5 8 2 4 3 5-3 1-3-3-3-6v-2l4-2 3-7z" fill="#7F8A9E"/>
<path transform="translate(1122,612)" d="m0 0h3l5 15 2 13v6h-1l-4-21-1-3-3-2z" fill="#6E7788"/>
<path transform="translate(791,514)" d="m0 0 4 2 1 7h2l1 4-13 5-6 2 3-3 13-6-5-5-1-4z" fill="#798394"/>
<path transform="translate(157,447)" d="m0 0 5 2 6 4-5 5-6-4v-3z" fill="#D4E6F6"/>
<path transform="translate(800,552)" d="m0 0 2 1-11 8-9 6-5 3-2-1 10-9z" fill="#434952"/>
<path transform="translate(145,420)" d="m0 0h1v11l-2 2h-2v-2h-2l-1 4 2 1-4 1 1-5 2-9 5 1z" fill="#B3C4E1"/>
<path transform="translate(1164,777)" d="m0 0 16 2 7 1v1h-11l-8-1-1 8-2 1-1-5z" fill="#A3B3CD"/>
<path transform="translate(987,622)" d="m0 0h2l-2 5-2 3 1 3-1 1 9-1 1 2h-5l-1 6-4-1 1-3h-2l-2-3v-5l4-5z" fill="#6E7789"/>
<path transform="translate(868,170)" d="m0 0h17l14 3 3 2-2 1-8-2-24-2z" fill="#B7C9E4"/>
<path transform="translate(546,161)" d="m0 0 5 3 5-2 2 1-5 8-2-1-2 2-4-1 1-2z" fill="#697282"/>
<path transform="translate(756,664)" d="m0 0 3 2-5 8-4 7h-2v2h-2l3-9z" fill="#6E7788"/>
<path transform="translate(821,609)" d="m0 0 3 1-8 7-1 2h-2l1 4-6 5-4 1v-2h2l1-4 9-9z" fill="#2D3238"/>
<path transform="translate(1487,636)" d="m0 0h8l2 3v6l-3-1v-2l-5-2-6 1 2-4z" fill="#30353B"/>
<path transform="translate(692,625)" d="m0 0h1v9l-1 2v10l1 5-3-1-2-16z" fill="#ABBCD7"/>
<path transform="translate(1066,575)" d="m0 0 5 1-2 2h-4v2h4l2 5 1 7 6 3v1h-5l-4-5-1-9-7-1-1-3 4 1z" fill="#747D8F"/>
<path transform="translate(854,423)" d="m0 0 5 1 3 4-1 1h-14l4-5z" fill="#6E7788"/>
<path transform="translate(909,200)" d="m0 0 2 1 3 9 1 6 2 2 1 3-2 1-3 12-2 1 2-9-1-14-3-9z" fill="#6E7788"/>
<path transform="translate(845,585)" d="m0 0h2v3l-7 3-11 8-2-1 3-5z" fill="#2D3238"/>
<path transform="translate(1079,574)" d="m0 0h2l5 9v3l5 1-2 2 1 2-4-2-2-2-2 4h-4v-2h3l2-5-2-1v-4z" fill="#727C8E"/>
<path transform="translate(99,387)" d="m0 0h5v2h5v2l-2 1 1 2-12 1 2-4h2z" fill="#3D424A"/>
<path transform="translate(578,164)" d="m0 0 5 1 1 3-8 13-1-2z" fill="#646C7C"/>
<path transform="translate(230,239)" d="m0 0 1 3-9 11-3 3-3-1 6-7 5-7z" fill="#D3E5F5"/>
<path transform="translate(1210,93)" d="m0 0 1 2-8 6-3 5-6-4-4-2v-2l6 1 5 1 6-6z" fill="#6E7788"/>
<path transform="translate(834,572)" d="m0 0h5l-2 1-1 4-6 4-10 5-8 6-2-1 14-10 9-5 3-1v-2z" fill="#33383F"/>
<path transform="translate(743,560)" d="m0 0m-1 1m-2 1 2 1-3 5-3 3-5 3-4 3 2-4z" fill="#D6E8F5"/>
<path transform="translate(170,168)" d="m0 0h13l1 3-2 2h-11z" fill="#778194"/>
<path transform="translate(788,754)" d="m0 0h1l1 13 3-13h1v8l-4 12h-2z" fill="#6E7788"/>
<path transform="translate(729,649)" d="m0 0 1 2-4 10-5 10h-1v-7z" fill="#B4C5E0"/>
<path transform="translate(1031,555)" d="m0 0h13v2l-15 1-11 1-2-2z" fill="#707A8B"/>
<path transform="translate(933,260)" d="m0 0h2l-2 4-5 7-6 5v2l-8 6 2-4 10-11z" fill="#505662"/>
<path transform="translate(1237,103)" d="m0 0 3 1-1 2-13 5-7 6-4 4 2-5 5-5h2v-2l10-5z" fill="#6E7788"/>
<path transform="translate(1020,374)" d="m0 0 2 3 2 11v5h-4z" fill="#DCEFF8"/>
<path transform="translate(944,314)" d="m0 0h4v2h5l1 2-1 2-8 1v-2l-4-2z" fill="#6E7788"/>
<path transform="translate(234,274)" d="m0 0 6 2-1 3h-2l-1 4-1-1v2l-4-1-1-7z" fill="#6B7484"/>
<path transform="translate(252,192)" d="m0 0 2 1-1 2 2 1-6 4-3 1h-7v-1l5-1-6-1v-1l10-2z" fill="#C4D7F0"/>
<path transform="translate(252,151)" d="m0 0 5 2 5 5-1 3-6-2-4-4z" fill="#B1C2DE"/>
<path transform="translate(93,780)" d="m0 0 3 2v2h8l10 2 1 2-7 1-3-2h-9l-3-3z" fill="#6E7788"/>
<path transform="translate(685,616)" d="m0 0h6l2 4h-9l-7 5h-2v-5l2 2z" fill="#A3B3CD"/>
<path transform="translate(1449,74)" d="m0 0h9l-1 6-6-1-5-2-3-2z" fill="#2D3238"/>
<path transform="translate(1097,32)" d="m0 0h19l6 2-4 2-11-2h-8l-9 1 3-2z" fill="#6E7788"/>
<path transform="translate(817,559)" d="m0 0 6 1-4 5-4 1-1 2v-2l-3-1 1-4z" fill="#2A2F35"/>
<path transform="translate(1190,779)" d="m0 0h4 11v3l-2 1h-9l-3-1z" fill="#8591A6"/>
<path transform="translate(1017,641)" d="m0 0 10 2 4 1-1 2 5 2-2 3-6 1 2-2 3-1-5-1-2-1v-3l-7-1z" fill="#6D7686"/>
<path transform="translate(1130,647)" d="m0 0h2l-1 22-2 8h-1v-15l1-2z" fill="#6E7788"/>
<path transform="translate(733,571)" d="m0 0 2 1-21 21h-2l2-4 8-7z" fill="#E0F3FB"/>
<path transform="translate(718,562)" d="m0 0 2 2-15 14-5 3 2-4z" fill="#3E434B"/>
<path transform="translate(966,370)" d="m0 0h7l4 5h-13l1-4z" fill="#646C7B"/>
<path transform="translate(889,305)" d="m0 0h1l1 6 1 4v16h-1l-3-15v-10z" fill="#CBDDED"/>
<path transform="translate(1473,639)" d="m0 0h1l2 26-2 4-1-11-1-1v-15z" fill="#2F343B"/>
<path transform="translate(1020,575)" d="m0 0 7 1 7 3v5h-2v-2h-4v-2l-9-3z" fill="#6E7788"/>
<path transform="translate(220,304)" d="m0 0 2 1-8 5-8 2-1 3-3-1h-3v-2l15-5z" fill="#4B515C"/>
<path transform="translate(555,184)" d="m0 0 1 3-5 7-11-2 1-2h7z" fill="#8D9AB0"/>
<path transform="translate(808,194)" d="m0 0h2l-2 4-6 10-2 2 1-10 1-2h3v-2z" fill="#4C525D"/>
<path transform="translate(824,190)" d="m0 0 3 1-2 1v3l-4 2-4 7-3 1v-3l7-9z" fill="#4D545F"/>
<path transform="translate(726,733)" d="m0 0h5l-2 2-14 6-4 2 1-4 11-5z" fill="#D2E4F2"/>
<path transform="translate(757,613)" d="m0 0 3 1-6 7-5 5-2-1 2-4 4-5z" fill="#494F5A"/>
<path transform="translate(713,592)" d="m0 0 1 2-10 13-2-1 2-4 6-8z" fill="#D9ECF7"/>
<path transform="translate(65,380)" d="m0 0 4 1 12 7-2 1-7-1-4-2v-2l-3-2z" fill="#40454E"/>
<path transform="translate(718,604)" d="m0 0h1v6l-4 6h-3l-1-4z" fill="#2D3238"/>
<path transform="translate(823,562)" d="m0 0 3 1h-2v3l-9 6h-2l2-6z" fill="#363B42"/>
<path transform="translate(904,191)" d="m0 0 6 2 3 2v3l-3 1-7-3z" fill="#B6C7E2"/>
<path transform="translate(863,169)" d="m0 0h11v2h-5l1 1v1l-11 1-1-3z" fill="#ABBBD6"/>
<path transform="translate(1053,576)" d="m0 0h9v2l-2 1h-6l-2 7-1-2-3-1 4-2z" fill="#515863"/>
<path transform="translate(1006,337)" d="m0 0h7l11 3 4 3h-5l-3-1-12-3z" fill="#6E7788"/>
<path transform="translate(1122,34)" d="m0 0 7 3 4 4v3l-5-2-5-4-2-2z" fill="#6A7383"/>
<path transform="translate(126,14)" d="m0 0 8 1 8 5-2 1-17-5z" fill="#363B42"/>
<path transform="translate(730,726)" d="m0 0h8l2 1-2 11-1 5h-1v-11l-1-3-5-2z" fill="#6E7788"/>
<path transform="translate(246,219)" d="m0 0 3 3 3 8-4 1-3-6z" fill="#D1E3F4"/>
<path transform="translate(1397,177)" d="m0 0 5 5 13 11-2 1-9-7-7-7z" fill="#32373E"/>
<path transform="translate(684,619)" d="m0 0h6l2 2-1 2-5-1-6 3-5 3v-3z" fill="#B6C7E4"/>
<path transform="translate(998,370)" d="m0 0h8l3 3v2l-13-1v-3z" fill="#484D57"/>
<path transform="translate(922,219)" d="m0 0h1v8l-4 11-2 2 4-20z" fill="#CCDEF0"/>
<path transform="translate(610,101)" d="m0 0 4 1-7 8h-3l1-4z" fill="#B2C4DF"/>
<path transform="translate(800,530)" d="m0 0h9l2 3-2 6-2 1v-3l-2-1 1-5h-6z" fill="#2D3238"/>
<path transform="translate(678,234)" d="m0 0h3l1 4v7l-3-1-1 2z" fill="#B6C7E4"/>
<path transform="translate(852,170)" d="m0 0h10l-3 2v2l-9 1v-3z" fill="#B7C9E5"/>
<path transform="translate(1e3 569)" d="m0 0h11l2 3h-8l-7 1-3-1 3-2z" fill="#727C8E"/>
<path transform="translate(809,567)" d="m0 0 4 1v2l-10 5-3-2z" fill="#2B3036"/>
<path transform="translate(1012,556)" d="m0 0m-1 1m-1 1 2 3-12 5-5 1v-2z" fill="#6F7889"/>
<path transform="translate(158,412)" d="m0 0h4l1 3-2 1-2 4-4-2 1-4z" fill="#B4C5E1"/>
<path transform="translate(353,335)" d="m0 0h9l-1 3h-17l2-2z" fill="#C2D3EA"/>
<path transform="translate(256,273)" d="m0 0 5 2 3 1v2h-22v-1l13-1h3z" fill="#6E7788"/>
<path transform="translate(367,249)" d="m0 0h15l-3 3h-10l-2-1z" fill="#C4D7F2"/>
<path transform="translate(897,231)" d="m0 0 2 4-2 3-7-2v-3z" fill="#666E7E"/>
<path transform="translate(1013,632)" d="m0 0 5 1-1 4-2 1-1 2-6-5 3-2z" fill="#606877"/>
<path transform="translate(1059,592)" d="m0 0 2 3 2 6h2l1 8-3-2-1-5-4-3z" fill="#7C879A"/>
<path transform="translate(867,366)" d="m0 0 3 1-1 2h3v3l-8 1-2-4h6z" fill="#D8EAF8"/>
<path transform="translate(1135,355)" d="m0 0h1l1 5h2l-1 5 5 5-6-1-2-5z" fill="#A3B3CD"/>
<path transform="translate(845,298)" d="m0 0h2v15l-3 2z" fill="#D0E2F1"/>
<path transform="translate(323,301)" d="m0 0 7 1 5 2v2h-7l-5-2z" fill="#D7EAF6"/>
<path transform="translate(234,195)" d="m0 0 4 1v2h8l-2 2-7 1-6-3 3-1z" fill="#BBCDE9"/>
<path transform="translate(573,157)" d="m0 0h2l-1 9-1 5-2-1 1-9-3-1z" fill="#656E7D"/>
<path transform="translate(749,659)" d="m0 0 1 2-3 9-5 3 3-9z" fill="#7C879A"/>
<path transform="translate(923,442)" d="m0 0h5l1 4-6 2-4-2 4-1z" fill="#D9ECF7"/>
<path transform="translate(175,388)" d="m0 0 5 1 1 3-4 1v2l-4-2 1-4z" fill="#C2D4ED"/>
<path transform="translate(881,379)" d="m0 0 2 1-1 3-12 6-2-1z" fill="#CCDEEE"/>
<path transform="translate(1120,334)" d="m0 0 3 2 2-1-1 5-5-1-5-4z" fill="#A3B3CD"/>
<path transform="translate(385,248)" d="m0 0h15l-1 3h-11z" fill="#A3B3CD"/>
<path transform="translate(571,188)" d="m0 0h3l-1 6-2 2-4-1 2-4z" fill="#A4B4CE"/>
<path transform="translate(782,177)" d="m0 0 5 1 2 2-1 4-8-4 2-1z" fill="#DBEDF8"/>
<path transform="translate(1281,90)" d="m0 0 1 2-2 4 4 2 4 5 2 2h-3l-2-4h-2v-2l-5-2v-3z" fill="#6E7788"/>
<path transform="translate(831,18)" d="m0 0 5 1v5l-3 1-3-1v-5z" fill="#6E7788"/>
<path transform="translate(706,642)" d="m0 0 1 4 2-1-1 6h-4l-1-4z" fill="#CADCF2"/>
<path transform="translate(1166,504)" d="m0 0h1v8l-1 4h-2l-1-7v-3h3z" fill="#A3B3CD"/>
<path transform="translate(985,425)" d="m0 0 2 1 2 9 4 5v2l-4-2-3-5z" fill="#4E545F"/>
<path transform="translate(886,357)" d="m0 0 3 2 1 6-4 1h-2v-5z" fill="#D6E8F7"/>
<path transform="translate(76,340)" d="m0 0 3 1-3 4h5l-4 2-6 1 2-3-2-3z" fill="#6C7586"/>
<path transform="translate(269,167)" d="m0 0 7 7v5l-4-1-2-4 2 1-2-5z" fill="#C6D9F1"/>
<path transform="translate(786,165)" d="m0 0 7 4-4 2-8-2 1-3z" fill="#6E7788"/>
<path transform="translate(1035,596)" d="m0 0 6 2v5l-5 1 1-6h-2z" fill="#737C8E"/>
<path transform="translate(1019,595)" d="m0 0h4v2h-2l2 8-3 1-2-1 1-4-1-5z" fill="#7A8597"/>
<path transform="translate(96,440)" d="m0 0 3 2-1 4-6-1-2-4h5z" fill="#656D7C"/>
<path transform="translate(975,416)" d="m0 0 2 1v8l-4 2v-9z" fill="#DEF1FA"/>
<path transform="translate(339,250)" d="m0 0h5l-2 1v2h8v1h-13v-1l-6-1v-1z" fill="#C2D4E9"/>
<path transform="translate(716,724)" d="m0 0 10 2-1 3-7-1-2-1z" fill="#BFD1EA"/>
<path transform="translate(1018,643)" d="m0 0 7 1-1 4-7-1-1-2h2z" fill="#3D424A"/>
<path transform="translate(998,581)" d="m0 0 1 2-3 4-2 4-4-1 2-1 1-5h3v-2z" fill="#7D889B"/>
<path transform="translate(1479,172)" d="m0 0 4 1v2h2l5 7-1 2-8-8-2-1z" fill="#6E7788"/>
<path transform="translate(1164,777)" d="m0 0 1 2h3l-1 9-2 1-1-5z" fill="#7E8A9B"/>
<path transform="translate(1011,653)" d="m0 0h8l5 3-1 3-6-4-1 3-1-3h-5z" fill="#6E7788"/>
<path transform="translate(762,560)" d="m0 0 2 1-4 3zm-3 4m-1 1m-1 1 1 3-7 6-2-1 5-6z" fill="#23282D"/>
<path transform="translate(758,563)" d="m0 0 2 1-12 11-4 2 1-3 8-7z" fill="#4A505B"/>
<path transform="translate(723,556)" d="m0 0 2 3-4 4-3-1z" fill="#464C56"/>
<path transform="translate(196,395)" d="m0 0h1l2 9v7l-4 1-1-2 3-3-1-3z" fill="#DBEEF7"/>
<path transform="translate(1436,85)" d="m0 0 4 1-2 4-7 1v-3z" fill="#2D3238"/>
<path transform="translate(1122,612)" d="m0 0h3l2 5-1 4-3-1z" fill="#5B6370"/>
<path transform="translate(211,453)" d="m0 0 3 1-14 8v-3l8-5z" fill="#5D6573"/>
<path transform="translate(910,421)" d="m0 0 3 3 1 8-4 2z" fill="#D6E8F6"/>
<path transform="translate(754,651)" d="m0 0h5l-2 4-4 5-1-2 1-2-2-2 3-1z" fill="#2D3238"/>
<path transform="translate(1120,606)" d="m0 0h2l2 6h-2l1 5-2-1v-3h-2l1-2-1-1v-3z" fill="#717B8C"/>
<path transform="translate(735,739)" d="m0 0h1l-1 8-4 2v-5h2z" fill="#BFD0E8"/>
<path transform="translate(757,641)" d="m0 0v3l-5 7v2h-3v-2l-3-1 5-2z" fill="#2C3137"/>
<path transform="translate(850,588)" d="m0 0 2 1-1 5-4 2-3-1 2-3h2z" fill="#2D3238"/>
<path transform="translate(799,574)" d="m0 0 4 1-10 7-4 2 6-7z" fill="#1D2226"/>
<path transform="translate(740,540)" d="m0 0 2 1-3 5-7 5 2-4z" fill="#3C424A"/>
<path transform="translate(1029,409)" d="m0 0 3 1v11h-2z" fill="#DEF1FA"/>
<path transform="translate(1053,383)" d="m0 0 4 2h-2l1 5h-2v5l-2-2v-8z" fill="#6E7788"/>
<path transform="translate(557,179)" d="m0 0 3 1-2 5-4 1-3 2 2-4z" fill="#B5C7E3"/>
<path transform="translate(679,104)" d="m0 0h1l1 13-2 1-1-13z" fill="#CADBEC"/>
<path transform="translate(364,300)" d="m0 0 3 1-2 3-7 1-1-4z" fill="#A3B3CD"/>
<path transform="translate(184,258)" d="m0 0m-1 1m-2 1 2 1-4 4v3l-5 2 2-4z" fill="#ADBED9"/>
<path transform="translate(622,92)" d="m0 0 2 1-4 4h-2v2l-3 2-3-1 7-6z" fill="#C9DBEE"/>
<path transform="translate(977,658)" d="m0 0 5 2v3l-6 2-1-2h2z" fill="#6E7788"/>
<path transform="translate(739,650)" d="m0 0 1 2-3 6 2 1-1 2-4-2 2-5z" fill="#6E7788"/>
<path transform="translate(1424,621)" d="m0 0 5 1-1 5-4-1z" fill="#6E7788"/>
<path transform="translate(1097,581)" d="m0 0 7 6 3 5h-2v-2l-3 1-5-8z" fill="#3A3F47"/>
<path transform="translate(1028,446)" d="m0 0h3l1 5-4 1-3 2-1-2 3-3z" fill="#D8EAF7"/>
<path transform="translate(252,260)" d="m0 0h2l1 2h4l-5 6-1-4-4-3z" fill="#6E7788"/>
<path transform="translate(795,210)" d="m0 0 3 1-1 1v8l-2 4-2-5z" fill="#6A7283"/>
<path transform="translate(1108,150)" d="m0 0h1v5l-1 1h-9l4-2z" fill="#A0B0CA"/>
</svg>
